{
  "accessors": [
    {
      "name": "mesh_0-Mesh_positions",
      "componentType": 5126,
      "count": 9145,
      "min": [
        -8.198150634765625,
        -2.608534097671509,
        -10.58660888671875
      ],
      "max": [
        211.80184936523438,
        71.3914794921875,
        94.91339111328125
      ],
      "type": "VEC3",
      "bufferView": 0,
      "byteOffset": 0
    },
    {
      "name": "mesh_0-Mesh_normals",
      "componentType": 5126,
      "count": 9145,
      "min": [
        -1,
        -1,
        -1
      ],
      "max": [
        1,
        1,
        1
      ],
      "type": "VEC3",
      "bufferView": 0,
      "byteOffset": 109740
    },
    {
      "name": "mesh_0-Mesh_texcoords",
      "componentType": 5126,
      "count": 9145,
      "min": [
        -1,
        0
      ],
      "max": [
        1,
        2
      ],
      "type": "VEC2",
      "bufferView": 1,
      "byteOffset": 0
    },
    {
      "name": "mesh_0-Mesh_0_indices",
      "componentType": 5123,
      "count": 10476,
      "min": [
        0
      ],
      "max": [
        3279
      ],
      "type": "SCALAR",
      "bufferView": 2,
      "byteOffset": 0
    },
    {
      "name": "mesh_0-Mesh_1_indices",
      "componentType": 5123,
      "count": 6960,
      "min": [
        3280
      ],
      "max": [
        5238
      ],
      "type": "SCALAR",
      "bufferView": 2,
      "byteOffset": 20952
    },
    {
      "name": "mesh_0-Mesh_2_indices",
      "componentType": 5123,
      "count": 13044,
      "min": [
        5239
      ],
      "max": [
        9144
      ],
      "type": "SCALAR",
      "bufferView": 2,
      "byteOffset": 34872
    }
  ],
  "asset": {
    "generator": "obj2gltf",
    "version": "2.0"
  },
  "buffers": [
    {
      "name": "taurus",
      "byteLength": 1356776,
      "uri": "data:application/octet-stream;base64,"
    }
  ],
  "bufferViews": [
    {
      "name": "bufferView_0",
      "buffer": 0,
      "byteLength": 219480,
      "byteOffset": 0,
      "byteStride": 12,
      "target": 34962
    },
    {
      "name": "bufferView_1",
      "buffer": 0,
      "byteLength": 73160,
      "byteOffset": 219480,
      "byteStride": 8,
      "target": 34962
    },
    {
      "name": "bufferView_2",
      "buffer": 0,
      "byteLength": 60960,
      "byteOffset": 292640,
      "target": 34963
    },
    {
      "buffer": 0,
      "byteOffset": 353600,
      "byteLength": 484463
    },
    {
      "buffer": 0,
      "byteOffset": 838063,
      "byteLength": 484463
    },
    {
      "buffer": 0,
      "byteOffset": 1322526,
      "byteLength": 34247
    }
  ],
  "images": [
    {
      "name": "11880002",
      "mimeType": "image/png",
      "bufferView": 3
    },
    {
      "name": "11880004",
      "mimeType": "image/png",
      "bufferView": 4
    },
    {
      "name": "11880003",
      "mimeType": "image/png",
      "bufferView": 5
    }
  ],
  "materials": [
    {
      "name": "mat_268d7b4d1dd14f818ce5c98ff9c27865",
      "pbrMetallicRoughness": {
        "baseColorTexture": {
          "index": 0
        },
        "baseColorFactor": [
          1,
          1,
          1,
          1
        ],
        "metallicFactor": 0,
        "roughnessFactor": 0.898039216
      },
      "emissiveFactor": [
        0,
        0,
        0
      ],
      "alphaMode": "OPAQUE",
      "doubleSided": false
    },
    {
      "name": "mat_d70f7283c7334832b46ae1a3be9e4c47",
      "pbrMetallicRoughness": {
        "baseColorTexture": {
          "index": 1
        },
        "baseColorFactor": [
          1,
          1,
          1,
          1
        ],
        "metallicFactor": 0,
        "roughnessFactor": 0.898039216
      },
      "emissiveFactor": [
        0,
        0,
        0
      ],
      "alphaMode": "OPAQUE",
      "doubleSided": false
    },
    {
      "name": "mat_1d07f1db6cef449b9d04c54cb73a876a",
      "pbrMetallicRoughness": {
        "baseColorTexture": {
          "index": 2
        },
        "baseColorFactor": [
          1,
          1,
          1,
          1
        ],
        "metallicFactor": 0,
        "roughnessFactor": 0.933333333
      },
      "emissiveFactor": [
        0,
        0,
        0
      ],
      "alphaMode": "OPAQUE",
      "doubleSided": false
    }
  ],
  "meshes": [
    {
      "name": "mesh_0-Mesh",
      "primitives": [
        {
          "attributes": {
            "POSITION": 0,
            "NORMAL": 1,
            "TEXCOORD_0": 2
          },
          "indices": 3,
          "material": 0,
          "mode": 4
        },
        {
          "attributes": {
            "POSITION": 0,
            "NORMAL": 1,
            "TEXCOORD_0": 2
          },
          "indices": 4,
          "material": 1,
          "mode": 4
        },
        {
          "attributes": {
            "POSITION": 0,
            "NORMAL": 1,
            "TEXCOORD_0": 2
          },
          "indices": 5,
          "material": 2,
          "mode": 4
        }
      ]
    }
  ],
  "nodes": [
    {
      "name": "mesh_0",
      "mesh": 0
    }
  ],
  "samplers": [
    {
      "magFilter": 9729,
      "minFilter": 9986,
      "wrapS": 10497,
      "wrapT": 10497
    }
  ],
  "scene": 0,
  "scenes": [
    {
      "nodes": [
        0
      ]
    }
  ],
  "textures": [
    {
      "name": "11880002",
      "sampler": 0,
      "source": 0
    },
    {
      "name": "11880004",
      "sampler": 0,
      "source": 1
    },
    {
      "name": "11880003",
      "sampler": 0,
      "source": 2
    }
  ]
}
