{
  "accessors": [
    {
      "name": "mesh_0-Mesh_positions",
      "componentType": 5126,
      "count": 9139,
      "min": [
        7.276240825653076,
        -2.2104170322418213,
        -6.331879138946533
      ],
      "max": [
        227.2762451171875,
        71.78959655761719,
        99.16813659667969
      ],
      "type": "VEC3",
      "bufferView": 0,
      "byteOffset": 0
    },
    {
      "name": "mesh_0-Mesh_normals",
      "componentType": 5126,
      "count": 9139,
      "min": [
        -1,
        -1,
        -1
      ],
      "max": [
        1,
        1,
        1
      ],
      "type": "VEC3",
      "bufferView": 0,
      "byteOffset": 109668
    },
    {
      "name": "mesh_0-Mesh_texcoords",
      "componentType": 5126,
      "count": 9139,
      "min": [
        -1,
        0
      ],
      "max": [
        1,
        2
      ],
      "type": "VEC2",
      "bufferView": 1,
      "byteOffset": 0
    },
    {
      "name": "mesh_0-Mesh_0_indices",
      "componentType": 5123,
      "count": 17436,
      "min": [
        0
      ],
      "max": [
        5236
      ],
      "type": "SCALAR",
      "bufferView": 2,
      "byteOffset": 0
    },
    {
      "name": "mesh_0-Mesh_1_indices",
      "componentType": 5123,
      "count": 13044,
      "min": [
        5237
      ],
      "max": [
        9138
      ],
      "type": "SCALAR",
      "bufferView": 2,
      "byteOffset": 34872
    }
  ],
  "asset": {
    "generator": "obj2gltf",
    "version": "2.0"
  },
  "buffers": [
    {
      "name": "bovem",
      "byteLength": 839056,
      "uri": "data:application/octet-stream;base64,"
    }
  ],
  "bufferViews": [
    {
      "name": "bufferView_0",
      "buffer": 0,
      "byteLength": 219336,
      "byteOffset": 0,
      "byteStride": 12,
      "target": 34962
    },
    {
      "name": "bufferView_1",
      "buffer": 0,
      "byteLength": 73112,
      "byteOffset": 219336,
      "byteStride": 8,
      "target": 34962
    },
    {
      "name": "bufferView_2",
      "buffer": 0,
      "byteLength": 60960,
      "byteOffset": 292448,
      "target": 34963
    },
    {
      "buffer": 0,
      "byteOffset": 353408,
      "byteLength": 484463
    },
    {
      "buffer": 0,
      "byteOffset": 837871,
      "byteLength": 1184
    }
  ],
  "images": [
    {
      "name": "1ad40002",
      "mimeType": "image/png",
      "bufferView": 3
    },
    {
      "name": "1ad40003",
      "mimeType": "image/png",
      "bufferView": 4
    }
  ],
  "materials": [
    {
      "name": "mat_0ae239613eae40a08a9f5b0bb8d803b4",
      "pbrMetallicRoughness": {
        "baseColorTexture": {
          "index": 0
        },
        "baseColorFactor": [
          1,
          1,
          1,
          1
        ],
        "metallicFactor": 0,
        "roughnessFactor": 0.898039216
      },
      "emissiveFactor": [
        0,
        0,
        0
      ],
      "alphaMode": "OPAQUE",
      "doubleSided": false
    },
    {
      "name": "mat_56eec723b752486fa00e6685c0e99b7b",
      "pbrMetallicRoughness": {
        "baseColorTexture": {
          "index": 1
        },
        "baseColorFactor": [
          1,
          1,
          1,
          1
        ],
        "metallicFactor": 0,
        "roughnessFactor": 0.9235294119999999
      },
      "emissiveFactor": [
        0,
        0,
        0
      ],
      "alphaMode": "OPAQUE",
      "doubleSided": false
    }
  ],
  "meshes": [
    {
      "name": "mesh_0-Mesh",
      "primitives": [
        {
          "attributes": {
            "POSITION": 0,
            "NORMAL": 1,
            "TEXCOORD_0": 2
          },
          "indices": 3,
          "material": 0,
          "mode": 4
        },
        {
          "attributes": {
            "POSITION": 0,
            "NORMAL": 1,
            "TEXCOORD_0": 2
          },
          "indices": 4,
          "material": 1,
          "mode": 4
        }
      ]
    }
  ],
  "nodes": [
    {
      "name": "mesh_0",
      "mesh": 0
    }
  ],
  "samplers": [
    {
      "magFilter": 9729,
      "minFilter": 9986,
      "wrapS": 10497,
      "wrapT": 10497
    }
  ],
  "scene": 0,
  "scenes": [
    {
      "nodes": [
        0
      ]
    }
  ],
  "textures": [
    {
      "name": "1ad40002",
      "sampler": 0,
      "source": 0
    },
    {
      "name": "1ad40003",
      "sampler": 0,
      "source": 1
    }
  ]
}
