{
  "accessors": [
    {
      "name": "mesh_0-Mesh_positions",
      "componentType": 5126,
      "count": 9136,
      "min": [
        -4.44305419921875,
        -0.5790740251541138,
        -4.439696788787842
      ],
      "max": [
        215.55694580078125,
        73.42093658447266,
        101.060302734375
      ],
      "type": "VEC3",
      "bufferView": 0,
      "byteOffset": 0
    },
    {
      "name": "mesh_0-Mesh_normals",
      "componentType": 5126,
      "count": 9136,
      "min": [
        -1,
        -1,
        -1
      ],
      "max": [
        1,
        1,
        1
      ],
      "type": "VEC3",
      "bufferView": 0,
      "byteOffset": 109632
    },
    {
      "name": "mesh_0-Mesh_texcoords",
      "componentType": 5126,
      "count": 9136,
      "min": [
        -1,
        0
      ],
      "max": [
        1,
        2
      ],
      "type": "VEC2",
      "bufferView": 1,
      "byteOffset": 0
    },
    {
      "name": "mesh_0-Mesh_0_indices",
      "componentType": 5123,
      "count": 10476,
      "min": [
        0
      ],
      "max": [
        3272
      ],
      "type": "SCALAR",
      "bufferView": 2,
      "byteOffset": 0
    },
    {
      "name": "mesh_0-Mesh_1_indices",
      "componentType": 5123,
      "count": 6960,
      "min": [
        3273
      ],
      "max": [
        5232
      ],
      "type": "SCALAR",
      "bufferView": 2,
      "byteOffset": 20952
    },
    {
      "name": "mesh_0-Mesh_2_indices",
      "componentType": 5123,
      "count": 13044,
      "min": [
        5233
      ],
      "max": [
        9135
      ],
      "type": "SCALAR",
      "bufferView": 2,
      "byteOffset": 34872
    }
  ],
  "asset": {
    "generator": "obj2gltf",
    "version": "2.0"
  },
  "buffers": [
    {
      "name": "centaurus",
      "byteLength": 1360516,
      "uri": "data:application/octet-stream;base64,"
    }
  ],
  "bufferViews": [
    {
      "name": "bufferView_0",
      "buffer": 0,
      "byteLength": 219264,
      "byteOffset": 0,
      "byteStride": 12,
      "target": 34962
    },
    {
      "name": "bufferView_1",
      "buffer": 0,
      "byteLength": 73088,
      "byteOffset": 219264,
      "byteStride": 8,
      "target": 34962
    },
    {
      "name": "bufferView_2",
      "buffer": 0,
      "byteLength": 60960,
      "byteOffset": 292352,
      "target": 34963
    },
    {
      "buffer": 0,
      "byteOffset": 353312,
      "byteLength": 484463
    },
    {
      "buffer": 0,
      "byteOffset": 837775,
      "byteLength": 484463
    },
    {
      "buffer": 0,
      "byteOffset": 1322238,
      "byteLength": 38276
    }
  ],
  "images": [
    {
      "name": "12c00002",
      "mimeType": "image/png",
      "bufferView": 3
    },
    {
      "name": "12c00004",
      "mimeType": "image/png",
      "bufferView": 4
    },
    {
      "name": "12c00003",
      "mimeType": "image/png",
      "bufferView": 5
    }
  ],
  "materials": [
    {
      "name": "mat_771b32720349462299123796fa96c60b",
      "pbrMetallicRoughness": {
        "baseColorTexture": {
          "index": 0
        },
        "baseColorFactor": [
          1,
          1,
          1,
          1
        ],
        "metallicFactor": 0,
        "roughnessFactor": 0.898039216
      },
      "emissiveFactor": [
        0,
        0,
        0
      ],
      "alphaMode": "OPAQUE",
      "doubleSided": false
    },
    {
      "name": "mat_80d81cd8b71e49f0aa3fb6a848dfb26e",
      "pbrMetallicRoughness": {
        "baseColorTexture": {
          "index": 1
        },
        "baseColorFactor": [
          1,
          1,
          1,
          1
        ],
        "metallicFactor": 0,
        "roughnessFactor": 0.898039216
      },
      "emissiveFactor": [
        0,
        0,
        0
      ],
      "alphaMode": "OPAQUE",
      "doubleSided": false
    },
    {
      "name": "mat_6a892bda208e4aa4962a5654d6cd18fa",
      "pbrMetallicRoughness": {
        "baseColorTexture": {
          "index": 2
        },
        "baseColorFactor": [
          1,
          1,
          1,
          1
        ],
        "metallicFactor": 0,
        "roughnessFactor": 0.9235294119999999
      },
      "emissiveFactor": [
        0,
        0,
        0
      ],
      "alphaMode": "OPAQUE",
      "doubleSided": false
    }
  ],
  "meshes": [
    {
      "name": "mesh_0-Mesh",
      "primitives": [
        {
          "attributes": {
            "POSITION": 0,
            "NORMAL": 1,
            "TEXCOORD_0": 2
          },
          "indices": 3,
          "material": 0,
          "mode": 4
        },
        {
          "attributes": {
            "POSITION": 0,
            "NORMAL": 1,
            "TEXCOORD_0": 2
          },
          "indices": 4,
          "material": 1,
          "mode": 4
        },
        {
          "attributes": {
            "POSITION": 0,
            "NORMAL": 1,
            "TEXCOORD_0": 2
          },
          "indices": 5,
          "material": 2,
          "mode": 4
        }
      ]
    }
  ],
  "nodes": [
    {
      "name": "mesh_0",
      "mesh": 0
    }
  ],
  "samplers": [
    {
      "magFilter": 9729,
      "minFilter": 9986,
      "wrapS": 10497,
      "wrapT": 10497
    }
  ],
  "scene": 0,
  "scenes": [
    {
      "nodes": [
        0
      ]
    }
  ],
  "textures": [
    {
      "name": "12c00002",
      "sampler": 0,
      "source": 0
    },
    {
      "name": "12c00004",
      "sampler": 0,
      "source": 1
    },
    {
      "name": "12c00003",
      "sampler": 0,
      "source": 2
    }
  ]
}
