{
  "accessors": [
    {
      "name": "mesh_4-Mesh_positions",
      "componentType": 5126,
      "count": 10702,
      "min": [
        5.950517177581787,
        -2.7104299068450928,
        3.158842086791992
      ],
      "max": [
        104.95051574707031,
        42.48957824707031,
        56.51884078979492
      ],
      "type": "VEC3",
      "bufferView": 0,
      "byteOffset": 0
    },
    {
      "name": "mesh_4-Mesh_normals",
      "componentType": 5126,
      "count": 10702,
      "min": [
        -1,
        -1,
        -1
      ],
      "max": [
        1,
        1,
        0.9994999766349792
      ],
      "type": "VEC3",
      "bufferView": 0,
      "byteOffset": 128424
    },
    {
      "name": "mesh_4-Mesh_texcoords",
      "componentType": 5126,
      "count": 10702,
      "min": [
        -1,
        0
      ],
      "max": [
        1,
        2
      ],
      "type": "VEC2",
      "bufferView": 1,
      "byteOffset": 0
    },
    {
      "name": "mesh_4-Mesh_0_indices",
      "componentType": 5123,
      "count": 1743,
      "min": [
        0
      ],
      "max": [
        428
      ],
      "type": "SCALAR",
      "bufferView": 2,
      "byteOffset": 0
    },
    {
      "name": "mesh_4-Mesh_1_indices",
      "componentType": 5123,
      "count": 31200,
      "min": [
        429
      ],
      "max": [
        10701
      ],
      "type": "SCALAR",
      "bufferView": 2,
      "byteOffset": 3488
    }
  ],
  "asset": {
    "generator": "obj2gltf",
    "version": "2.0"
  },
  "buffers": [
    {
      "name": "cuprodorico",
      "byteLength": 894000,
      "uri": "data:application/octet-stream;base64,"
    }
  ],
  "bufferViews": [
    {
      "name": "bufferView_0",
      "buffer": 0,
      "byteLength": 256848,
      "byteOffset": 0,
      "byteStride": 12,
      "target": 34962
    },
    {
      "name": "bufferView_1",
      "buffer": 0,
      "byteLength": 85616,
      "byteOffset": 256848,
      "byteStride": 8,
      "target": 34962
    },
    {
      "name": "bufferView_2",
      "buffer": 0,
      "byteLength": 65888,
      "byteOffset": 342464,
      "target": 34963
    },
    {
      "buffer": 0,
      "byteOffset": 408352,
      "byteLength": 484463
    },
    {
      "buffer": 0,
      "byteOffset": 892815,
      "byteLength": 1184
    }
  ],
  "images": [
    {
      "name": "1d3c0004",
      "mimeType": "image/png",
      "bufferView": 3
    },
    {
      "name": "1d3c0003",
      "mimeType": "image/png",
      "bufferView": 4
    }
  ],
  "materials": [
    {
      "name": "mat_4f78ca7b8f204b4a91992cd5ceacb519",
      "pbrMetallicRoughness": {
        "baseColorTexture": {
          "index": 0
        },
        "baseColorFactor": [
          1,
          1,
          1,
          1
        ],
        "metallicFactor": 0,
        "roughnessFactor": 0.894117647
      },
      "emissiveFactor": [
        0,
        0,
        0
      ],
      "alphaMode": "OPAQUE",
      "doubleSided": false
    },
    {
      "name": "mat_5e8e2f78f4d64ad9be40ca29dfa9b3c8",
      "pbrMetallicRoughness": {
        "baseColorTexture": {
          "index": 1
        },
        "baseColorFactor": [
          1,
          1,
          1,
          1
        ],
        "metallicFactor": 0,
        "roughnessFactor": 0.905882353
      },
      "emissiveFactor": [
        0,
        0,
        0
      ],
      "alphaMode": "OPAQUE",
      "doubleSided": false
    }
  ],
  "meshes": [
    {
      "name": "mesh_4-Mesh",
      "primitives": [
        {
          "attributes": {
            "POSITION": 0,
            "NORMAL": 1,
            "TEXCOORD_0": 2
          },
          "indices": 3,
          "material": 0,
          "mode": 4
        },
        {
          "attributes": {
            "POSITION": 0,
            "NORMAL": 1,
            "TEXCOORD_0": 2
          },
          "indices": 4,
          "material": 1,
          "mode": 4
        }
      ]
    }
  ],
  "nodes": [
    {
      "name": "mesh_4",
      "mesh": 0
    }
  ],
  "samplers": [
    {
      "magFilter": 9729,
      "minFilter": 9986,
      "wrapS": 10497,
      "wrapT": 10497
    }
  ],
  "scene": 0,
  "scenes": [
    {
      "nodes": [
        0
      ]
    }
  ],
  "textures": [
    {
      "name": "1d3c0004",
      "sampler": 0,
      "source": 0
    },
    {
      "name": "1d3c0003",
      "sampler": 0,
      "source": 1
    }
  ]
}
