{
  "accessors": [
    {
      "name": "mesh_1-Mesh_positions",
      "componentType": 5126,
      "count": 591,
      "min": [
        3.4923129081726074,
        -56.96614074707031,
        17.5213565826416
      ],
      "max": [
        103.4923095703125,
        79.33819580078125,
        153.60739135742188
      ],
      "type": "VEC3",
      "bufferView": 0,
      "byteOffset": 0
    },
    {
      "name": "mesh_1-Mesh_normals",
      "componentType": 5126,
      "count": 591,
      "min": [
        -1,
        -0.9409000277519226,
        -0.9937999844551086
      ],
      "max": [
        1,
        0.9408000111579895,
        0.9937999844551086
      ],
      "type": "VEC3",
      "bufferView": 0,
      "byteOffset": 7092
    },
    {
      "name": "mesh_1-Mesh_0_indices",
      "componentType": 5123,
      "count": 750,
      "min": [
        0
      ],
      "max": [
        402
      ],
      "type": "SCALAR",
      "bufferView": 1,
      "byteOffset": 0
    },
    {
      "name": "mesh_1-Mesh_1_indices",
      "componentType": 5123,
      "count": 30,
      "min": [
        403
      ],
      "max": [
        422
      ],
      "type": "SCALAR",
      "bufferView": 1,
      "byteOffset": 1500
    },
    {
      "name": "mesh_1-Mesh_2_indices",
      "componentType": 5123,
      "count": 420,
      "min": [
        423
      ],
      "max": [
        590
      ],
      "type": "SCALAR",
      "bufferView": 1,
      "byteOffset": 1560
    }
  ],
  "asset": {
    "generator": "obj2gltf",
    "version": "2.0"
  },
  "buffers": [
    {
      "name": "1m-30DEG",
      "byteLength": 16584,
      "uri": "data:application/octet-stream;base64,"
    }
  ],
  "bufferViews": [
    {
      "name": "bufferView_0",
      "buffer": 0,
      "byteLength": 14184,
      "byteOffset": 0,
      "byteStride": 12,
      "target": 34962
    },
    {
      "name": "bufferView_1",
      "buffer": 0,
      "byteLength": 2400,
      "byteOffset": 14184,
      "target": 34963
    }
  ],
  "materials": [
    {
      "name": "mat_SKP_RAL5012Lichtblau_a68a7cc6",
      "pbrMetallicRoughness": {
        "baseColorFactor": [
          0.160784,
          0.45098,
          0.721569,
          1
        ],
        "metallicFactor": 0,
        "roughnessFactor": 0.9372549020000001
      },
      "emissiveFactor": [
        0,
        0,
        0
      ],
      "alphaMode": "OPAQUE",
      "doubleSided": false
    },
    {
      "name": "mat_SKP_RAL9003Signalwei_a68a7cc6",
      "pbrMetallicRoughness": {
        "baseColorFactor": [
          1,
          1,
          1,
          1
        ],
        "metallicFactor": 0,
        "roughnessFactor": 0.9372549020000001
      },
      "emissiveFactor": [
        0,
        0,
        0
      ],
      "alphaMode": "OPAQUE",
      "doubleSided": false
    },
    {
      "name": "mat_SKP_RAL7035Lichtgrau_a68a7cc6",
      "pbrMetallicRoughness": {
        "baseColorFactor": [
          0.831373,
          0.85098,
          0.858824,
          1
        ],
        "metallicFactor": 0,
        "roughnessFactor": 0.9372549020000001
      },
      "emissiveFactor": [
        0,
        0,
        0
      ],
      "alphaMode": "OPAQUE",
      "doubleSided": false
    }
  ],
  "meshes": [
    {
      "name": "mesh_1-Mesh",
      "primitives": [
        {
          "attributes": {
            "POSITION": 0,
            "NORMAL": 1
          },
          "indices": 2,
          "material": 0,
          "mode": 4
        },
        {
          "attributes": {
            "POSITION": 0,
            "NORMAL": 1
          },
          "indices": 3,
          "material": 1,
          "mode": 4
        },
        {
          "attributes": {
            "POSITION": 0,
            "NORMAL": 1
          },
          "indices": 4,
          "material": 2,
          "mode": 4
        }
      ]
    }
  ],
  "nodes": [
    {
      "name": "mesh_1",
      "mesh": 0
    }
  ],
  "scene": 0,
  "scenes": [
    {
      "nodes": [
        0
      ]
    }
  ]
}
