{
  "accessors": [
    {
      "name": "mesh_10-Mesh_positions",
      "componentType": 5126,
      "count": 601,
      "min": [
        3.1992568969726562,
        -2.002441883087158,
        5.084242820739746
      ],
      "max": [
        103.19926452636719,
        197.99757385253906,
        105.08428192138672
      ],
      "type": "VEC3",
      "bufferView": 0,
      "byteOffset": 0
    },
    {
      "name": "mesh_10-Mesh_normals",
      "componentType": 5126,
      "count": 601,
      "min": [
        -1,
        -1,
        -1
      ],
      "max": [
        1,
        1,
        1
      ],
      "type": "VEC3",
      "bufferView": 0,
      "byteOffset": 7212
    },
    {
      "name": "mesh_10-Mesh_0_indices",
      "componentType": 5123,
      "count": 750,
      "min": [
        0
      ],
      "max": [
        412
      ],
      "type": "SCALAR",
      "bufferView": 1,
      "byteOffset": 0
    },
    {
      "name": "mesh_10-Mesh_1_indices",
      "componentType": 5123,
      "count": 420,
      "min": [
        413
      ],
      "max": [
        580
      ],
      "type": "SCALAR",
      "bufferView": 1,
      "byteOffset": 1500
    },
    {
      "name": "mesh_10-Mesh_2_indices",
      "componentType": 5123,
      "count": 30,
      "min": [
        581
      ],
      "max": [
        600
      ],
      "type": "SCALAR",
      "bufferView": 1,
      "byteOffset": 2340
    }
  ],
  "asset": {
    "generator": "obj2gltf",
    "version": "2.0"
  },
  "buffers": [
    {
      "name": "prova1x2x1m",
      "byteLength": 16824,
      "uri": "data:application/octet-stream;base64,"
    }
  ],
  "bufferViews": [
    {
      "name": "bufferView_0",
      "buffer": 0,
      "byteLength": 14424,
      "byteOffset": 0,
      "byteStride": 12,
      "target": 34962
    },
    {
      "name": "bufferView_1",
      "buffer": 0,
      "byteLength": 2400,
      "byteOffset": 14424,
      "target": 34963
    }
  ],
  "materials": [
    {
      "name": "mat_SKP_RAL5012Lichtblau_a68a7cc6",
      "pbrMetallicRoughness": {
        "baseColorFactor": [
          0.160784,
          0.45098,
          0.721569,
          1
        ],
        "metallicFactor": 0,
        "roughnessFactor": 0.9372549020000001
      },
      "emissiveFactor": [
        0,
        0,
        0
      ],
      "alphaMode": "OPAQUE",
      "doubleSided": false
    },
    {
      "name": "mat_SKP_RAL7035Lichtgrau_a68a7cc6",
      "pbrMetallicRoughness": {
        "baseColorFactor": [
          0.831373,
          0.85098,
          0.858824,
          1
        ],
        "metallicFactor": 0,
        "roughnessFactor": 0.9372549020000001
      },
      "emissiveFactor": [
        0,
        0,
        0
      ],
      "alphaMode": "OPAQUE",
      "doubleSided": false
    },
    {
      "name": "mat_SKP_RAL9003Signalwei_a68a7cc6",
      "pbrMetallicRoughness": {
        "baseColorFactor": [
          1,
          1,
          1,
          1
        ],
        "metallicFactor": 0,
        "roughnessFactor": 0.9372549020000001
      },
      "emissiveFactor": [
        0,
        0,
        0
      ],
      "alphaMode": "OPAQUE",
      "doubleSided": false
    }
  ],
  "meshes": [
    {
      "name": "mesh_10-Mesh",
      "primitives": [
        {
          "attributes": {
            "POSITION": 0,
            "NORMAL": 1
          },
          "indices": 2,
          "material": 0,
          "mode": 4
        },
        {
          "attributes": {
            "POSITION": 0,
            "NORMAL": 1
          },
          "indices": 3,
          "material": 1,
          "mode": 4
        },
        {
          "attributes": {
            "POSITION": 0,
            "NORMAL": 1
          },
          "indices": 4,
          "material": 2,
          "mode": 4
        }
      ]
    }
  ],
  "nodes": [
    {
      "name": "mesh_10",
      "mesh": 0
    }
  ],
  "scene": 0,
  "scenes": [
    {
      "nodes": [
        0
      ]
    }
  ]
}
