{
  "accessors": [
    {
      "name": "mesh_0_1_positions",
      "componentType": 5126,
      "count": 4,
      "min": [
        -0.43711405992507935,
        -0.4962354600429535,
        0.23584601283073425
      ],
      "max": [
        0.18698593974113464,
        -0.48939505219459534,
        0.2546398639678955
      ],
      "type": "VEC3",
      "bufferView": 0,
      "byteOffset": 0
    },
    {
      "name": "mesh_0_1_normals",
      "componentType": 5126,
      "count": 4,
      "min": [
        0,
        -0.9396926164627075,
        0.3420201539993286
      ],
      "max": [
        0,
        -0.9396926164627075,
        0.3420201539993286
      ],
      "type": "VEC3",
      "bufferView": 0,
      "byteOffset": 7056
    },
    {
      "name": "mesh_0_1_0_indices",
      "componentType": 5123,
      "count": 6,
      "min": [
        0
      ],
      "max": [
        3
      ],
      "type": "SCALAR",
      "bufferView": 1,
      "byteOffset": 0
    },
    {
      "name": "mesh_1_1_positions",
      "componentType": 5126,
      "count": 80,
      "min": [
        -0.43711405992507935,
        -0.4980088770389557,
        0.05795948579907417
      ],
      "max": [
        0.18698593974113464,
        -0.47200000286102295,
        0.25800949335098267
      ],
      "type": "VEC3",
      "bufferView": 0,
      "byteOffset": 48
    },
    {
      "name": "mesh_1_1_normals",
      "componentType": 5126,
      "count": 80,
      "min": [
        -1,
        -1,
        -1
      ],
      "max": [
        1,
        1,
        1
      ],
      "type": "VEC3",
      "bufferView": 0,
      "byteOffset": 7104
    },
    {
      "name": "mesh_1_1_0_indices",
      "componentType": 5123,
      "count": 150,
      "min": [
        0
      ],
      "max": [
        79
      ],
      "type": "SCALAR",
      "bufferView": 1,
      "byteOffset": 12
    },
    {
      "name": "mesh_2_1_positions",
      "componentType": 5126,
      "count": 168,
      "min": [
        -0.46507352590560913,
        -0.503000020980835,
        0
      ],
      "max": [
        0.21492649614810944,
        1.4495849853801701e-8,
        1.0190000534057617
      ],
      "type": "VEC3",
      "bufferView": 0,
      "byteOffset": 1008
    },
    {
      "name": "mesh_2_1_normals",
      "componentType": 5126,
      "count": 168,
      "min": [
        -1,
        -1,
        -1
      ],
      "max": [
        1,
        1,
        1
      ],
      "type": "VEC3",
      "bufferView": 0,
      "byteOffset": 8064
    },
    {
      "name": "mesh_2_1_0_indices",
      "componentType": 5123,
      "count": 420,
      "min": [
        0
      ],
      "max": [
        167
      ],
      "type": "SCALAR",
      "bufferView": 1,
      "byteOffset": 312
    },
    {
      "name": "mesh_3_1_positions",
      "componentType": 5126,
      "count": 4,
      "min": [
        -0.43711405992507935,
        -0.4962354600429535,
        0.9357460141181946
      ],
      "max": [
        0.18698593974113464,
        -0.48939505219459534,
        0.9545398950576782
      ],
      "type": "VEC3",
      "bufferView": 0,
      "byteOffset": 3024
    },
    {
      "name": "mesh_3_1_normals",
      "componentType": 5126,
      "count": 4,
      "min": [
        0,
        -0.9396926164627075,
        0.3420201539993286
      ],
      "max": [
        0,
        -0.9396926164627075,
        0.3420201539993286
      ],
      "type": "VEC3",
      "bufferView": 0,
      "byteOffset": 10080
    },
    {
      "name": "mesh_3_1_0_indices",
      "componentType": 5123,
      "count": 6,
      "min": [
        0
      ],
      "max": [
        3
      ],
      "type": "SCALAR",
      "bufferView": 1,
      "byteOffset": 1152
    },
    {
      "name": "mesh_4_1_positions",
      "componentType": 5126,
      "count": 80,
      "min": [
        -0.43711405992507935,
        -0.4980088770389557,
        0.8578594923019409
      ],
      "max": [
        0.18698593974113464,
        -0.47200000286102295,
        0.9579094648361206
      ],
      "type": "VEC3",
      "bufferView": 0,
      "byteOffset": 3072
    },
    {
      "name": "mesh_4_1_normals",
      "componentType": 5126,
      "count": 80,
      "min": [
        -1,
        -1,
        -1
      ],
      "max": [
        1,
        1,
        1
      ],
      "type": "VEC3",
      "bufferView": 0,
      "byteOffset": 10128
    },
    {
      "name": "mesh_4_1_0_indices",
      "componentType": 5123,
      "count": 150,
      "min": [
        0
      ],
      "max": [
        79
      ],
      "type": "SCALAR",
      "bufferView": 1,
      "byteOffset": 1164
    },
    {
      "name": "mesh_5_1_positions",
      "componentType": 5126,
      "count": 4,
      "min": [
        -0.43711405992507935,
        -0.4962354600429535,
        0.43589600920677185
      ],
      "max": [
        0.18698593974113464,
        -0.48939505219459534,
        0.4546898603439331
      ],
      "type": "VEC3",
      "bufferView": 0,
      "byteOffset": 4032
    },
    {
      "name": "mesh_5_1_normals",
      "componentType": 5126,
      "count": 4,
      "min": [
        0,
        -0.9396926164627075,
        0.3420201539993286
      ],
      "max": [
        0,
        -0.9396926164627075,
        0.3420201539993286
      ],
      "type": "VEC3",
      "bufferView": 0,
      "byteOffset": 11088
    },
    {
      "name": "mesh_5_1_0_indices",
      "componentType": 5123,
      "count": 6,
      "min": [
        0
      ],
      "max": [
        3
      ],
      "type": "SCALAR",
      "bufferView": 1,
      "byteOffset": 1464
    },
    {
      "name": "mesh_6_1_positions",
      "componentType": 5126,
      "count": 80,
      "min": [
        -0.43711405992507935,
        -0.4980088770389557,
        0.25800949335098267
      ],
      "max": [
        0.18698593974113464,
        -0.47200000286102295,
        0.45805948972702026
      ],
      "type": "VEC3",
      "bufferView": 0,
      "byteOffset": 4080
    },
    {
      "name": "mesh_6_1_normals",
      "componentType": 5126,
      "count": 80,
      "min": [
        -1,
        -1,
        -1
      ],
      "max": [
        1,
        1,
        1
      ],
      "type": "VEC3",
      "bufferView": 0,
      "byteOffset": 11136
    },
    {
      "name": "mesh_6_1_0_indices",
      "componentType": 5123,
      "count": 150,
      "min": [
        0
      ],
      "max": [
        79
      ],
      "type": "SCALAR",
      "bufferView": 1,
      "byteOffset": 1476
    },
    {
      "name": "mesh_7_1_positions",
      "componentType": 5126,
      "count": 4,
      "min": [
        -0.43711405992507935,
        -0.4962354600429535,
        0.8359960317611694
      ],
      "max": [
        0.18698593974113464,
        -0.48939505219459534,
        0.8547898530960083
      ],
      "type": "VEC3",
      "bufferView": 0,
      "byteOffset": 5040
    },
    {
      "name": "mesh_7_1_normals",
      "componentType": 5126,
      "count": 4,
      "min": [
        0,
        -0.9396926164627075,
        0.3420201539993286
      ],
      "max": [
        0,
        -0.9396926164627075,
        0.3420201539993286
      ],
      "type": "VEC3",
      "bufferView": 0,
      "byteOffset": 12096
    },
    {
      "name": "mesh_7_1_0_indices",
      "componentType": 5123,
      "count": 6,
      "min": [
        0
      ],
      "max": [
        3
      ],
      "type": "SCALAR",
      "bufferView": 1,
      "byteOffset": 1776
    },
    {
      "name": "mesh_8_1_positions",
      "componentType": 5126,
      "count": 80,
      "min": [
        -0.43711405992507935,
        -0.4980088770389557,
        0.6581094861030579
      ],
      "max": [
        0.18698593974113464,
        -0.47200000286102295,
        0.8581594824790955
      ],
      "type": "VEC3",
      "bufferView": 0,
      "byteOffset": 5088
    },
    {
      "name": "mesh_8_1_normals",
      "componentType": 5126,
      "count": 80,
      "min": [
        -1,
        -1,
        -1
      ],
      "max": [
        1,
        1,
        1
      ],
      "type": "VEC3",
      "bufferView": 0,
      "byteOffset": 12144
    },
    {
      "name": "mesh_8_1_0_indices",
      "componentType": 5123,
      "count": 150,
      "min": [
        0
      ],
      "max": [
        79
      ],
      "type": "SCALAR",
      "bufferView": 1,
      "byteOffset": 1788
    },
    {
      "name": "mesh_9_1_positions",
      "componentType": 5126,
      "count": 4,
      "min": [
        -0.43711405992507935,
        -0.4962354600429535,
        0.6359460353851318
      ],
      "max": [
        0.18698593974113464,
        -0.48939505219459534,
        0.6547398567199707
      ],
      "type": "VEC3",
      "bufferView": 0,
      "byteOffset": 6048
    },
    {
      "name": "mesh_9_1_normals",
      "componentType": 5126,
      "count": 4,
      "min": [
        0,
        -0.9396926164627075,
        0.3420201539993286
      ],
      "max": [
        0,
        -0.9396926164627075,
        0.3420201539993286
      ],
      "type": "VEC3",
      "bufferView": 0,
      "byteOffset": 13104
    },
    {
      "name": "mesh_9_1_0_indices",
      "componentType": 5123,
      "count": 6,
      "min": [
        0
      ],
      "max": [
        3
      ],
      "type": "SCALAR",
      "bufferView": 1,
      "byteOffset": 2088
    },
    {
      "name": "mesh_10_1_positions",
      "componentType": 5126,
      "count": 80,
      "min": [
        -0.43711405992507935,
        -0.4980088770389557,
        0.45805948972702026
      ],
      "max": [
        0.18698593974113464,
        -0.47200000286102295,
        0.6581094861030579
      ],
      "type": "VEC3",
      "bufferView": 0,
      "byteOffset": 6096
    },
    {
      "name": "mesh_10_1_normals",
      "componentType": 5126,
      "count": 80,
      "min": [
        -1,
        -1,
        -1
      ],
      "max": [
        1,
        1,
        1
      ],
      "type": "VEC3",
      "bufferView": 0,
      "byteOffset": 13152
    },
    {
      "name": "mesh_10_1_0_indices",
      "componentType": 5123,
      "count": 150,
      "min": [
        0
      ],
      "max": [
        79
      ],
      "type": "SCALAR",
      "bufferView": 1,
      "byteOffset": 2100
    }
  ],
  "asset": {
    "generator": "obj2gltf",
    "version": "2.0"
  },
  "buffers": [
    {
      "name": "provaobj",
      "byteLength": 16512,
      "uri": "data:application/octet-stream;base64,"
    }
  ],
  "bufferViews": [
    {
      "name": "bufferView_0",
      "buffer": 0,
      "byteLength": 14112,
      "byteOffset": 0,
      "byteStride": 12,
      "target": 34962
    },
    {
      "name": "bufferView_1",
      "buffer": 0,
      "byteLength": 2400,
      "byteOffset": 14112,
      "target": 34963
    }
  ],
  "materials": [
    {
      "name": "mat_SKP_RAL9003Signalwei_a68a7cc6",
      "pbrMetallicRoughness": {
        "baseColorFactor": [
          1,
          1,
          1,
          1
        ],
        "metallicFactor": 0,
        "roughnessFactor": 0.9359999999999999
      },
      "emissiveFactor": [
        0,
        0,
        0
      ],
      "alphaMode": "OPAQUE",
      "doubleSided": false
    },
    {
      "name": "mat_SKP_RAL5012Lichtblau_a68a7cc6",
      "pbrMetallicRoughness": {
        "baseColorFactor": [
          0.16078432,
          0.4509804,
          0.72156864,
          1
        ],
        "metallicFactor": 0,
        "roughnessFactor": 0.9359999999999999
      },
      "emissiveFactor": [
        0,
        0,
        0
      ],
      "alphaMode": "OPAQUE",
      "doubleSided": false
    },
    {
      "name": "mat_SKP_RAL7035Lichtgrau_a68a7cc6",
      "pbrMetallicRoughness": {
        "baseColorFactor": [
          0.83137256,
          0.8509804,
          0.85882354,
          1
        ],
        "metallicFactor": 0,
        "roughnessFactor": 0.9359999999999999
      },
      "emissiveFactor": [
        0,
        0,
        0
      ],
      "alphaMode": "OPAQUE",
      "doubleSided": false
    }
  ],
  "meshes": [
    {
      "name": "mesh_0_1",
      "primitives": [
        {
          "attributes": {
            "POSITION": 0,
            "NORMAL": 1
          },
          "indices": 2,
          "material": 0,
          "mode": 4
        }
      ]
    },
    {
      "name": "mesh_1_1",
      "primitives": [
        {
          "attributes": {
            "POSITION": 3,
            "NORMAL": 4
          },
          "indices": 5,
          "material": 1,
          "mode": 4
        }
      ]
    },
    {
      "name": "mesh_2_1",
      "primitives": [
        {
          "attributes": {
            "POSITION": 6,
            "NORMAL": 7
          },
          "indices": 8,
          "material": 2,
          "mode": 4
        }
      ]
    },
    {
      "name": "mesh_3_1",
      "primitives": [
        {
          "attributes": {
            "POSITION": 9,
            "NORMAL": 10
          },
          "indices": 11,
          "material": 0,
          "mode": 4
        }
      ]
    },
    {
      "name": "mesh_4_1",
      "primitives": [
        {
          "attributes": {
            "POSITION": 12,
            "NORMAL": 13
          },
          "indices": 14,
          "material": 1,
          "mode": 4
        }
      ]
    },
    {
      "name": "mesh_5_1",
      "primitives": [
        {
          "attributes": {
            "POSITION": 15,
            "NORMAL": 16
          },
          "indices": 17,
          "material": 0,
          "mode": 4
        }
      ]
    },
    {
      "name": "mesh_6_1",
      "primitives": [
        {
          "attributes": {
            "POSITION": 18,
            "NORMAL": 19
          },
          "indices": 20,
          "material": 1,
          "mode": 4
        }
      ]
    },
    {
      "name": "mesh_7_1",
      "primitives": [
        {
          "attributes": {
            "POSITION": 21,
            "NORMAL": 22
          },
          "indices": 23,
          "material": 0,
          "mode": 4
        }
      ]
    },
    {
      "name": "mesh_8_1",
      "primitives": [
        {
          "attributes": {
            "POSITION": 24,
            "NORMAL": 25
          },
          "indices": 26,
          "material": 1,
          "mode": 4
        }
      ]
    },
    {
      "name": "mesh_9_1",
      "primitives": [
        {
          "attributes": {
            "POSITION": 27,
            "NORMAL": 28
          },
          "indices": 29,
          "material": 0,
          "mode": 4
        }
      ]
    },
    {
      "name": "mesh_10_1",
      "primitives": [
        {
          "attributes": {
            "POSITION": 30,
            "NORMAL": 31
          },
          "indices": 32,
          "material": 1,
          "mode": 4
        }
      ]
    }
  ],
  "nodes": [
    {
      "name": "mesh_0",
      "mesh": 0
    },
    {
      "name": "mesh_1",
      "mesh": 1
    },
    {
      "name": "mesh_2",
      "mesh": 2
    },
    {
      "name": "mesh_3",
      "mesh": 3
    },
    {
      "name": "mesh_4",
      "mesh": 4
    },
    {
      "name": "mesh_5",
      "mesh": 5
    },
    {
      "name": "mesh_6",
      "mesh": 6
    },
    {
      "name": "mesh_7",
      "mesh": 7
    },
    {
      "name": "mesh_8",
      "mesh": 8
    },
    {
      "name": "mesh_9",
      "mesh": 9
    },
    {
      "name": "mesh_10",
      "mesh": 10
    }
  ],
  "scene": 0,
  "scenes": [
    {
      "nodes": [
        0,
        1,
        2,
        3,
        4,
        5,
        6,
        7,
        8,
        9,
        10
      ]
    }
  ]
}
