{
  "accessors": [
    {
      "name": "mesh_13-Mesh_positions",
      "componentType": 5126,
      "count": 787,
      "min": [
        0,
        0.08150699734687805,
        -1
      ],
      "max": [
        1,
        1.0815080404281616,
        0
      ],
      "type": "VEC3",
      "bufferView": 0,
      "byteOffset": 0
    },
    {
      "name": "mesh_13-Mesh_normals",
      "componentType": 5126,
      "count": 787,
      "min": [
        -1,
        -1,
        -1
      ],
      "max": [
        1,
        1,
        1
      ],
      "type": "VEC3",
      "bufferView": 0,
      "byteOffset": 9444
    },
    {
      "name": "mesh_13-Mesh_0_indices",
      "componentType": 5123,
      "count": 1134,
      "min": [
        0
      ],
      "max": [
        590
      ],
      "type": "SCALAR",
      "bufferView": 1,
      "byteOffset": 0
    },
    {
      "name": "mesh_13-Mesh_1_indices",
      "componentType": 5123,
      "count": 42,
      "min": [
        591
      ],
      "max": [
        618
      ],
      "type": "SCALAR",
      "bufferView": 1,
      "byteOffset": 2268
    },
    {
      "name": "mesh_13-Mesh_2_indices",
      "componentType": 5123,
      "count": 420,
      "min": [
        619
      ],
      "max": [
        786
      ],
      "type": "SCALAR",
      "bufferView": 1,
      "byteOffset": 2352
    }
  ],
  "asset": {
    "generator": "obj2gltf",
    "version": "2.0"
  },
  "buffers": [
    {
      "name": "prova1mtot",
      "byteLength": 22080,
      "uri": "data:application/octet-stream;base64,"
    }
  ],
  "bufferViews": [
    {
      "name": "bufferView_0",
      "buffer": 0,
      "byteLength": 18888,
      "byteOffset": 0,
      "byteStride": 12,
      "target": 34962
    },
    {
      "name": "bufferView_1",
      "buffer": 0,
      "byteLength": 3192,
      "byteOffset": 18888,
      "target": 34963
    }
  ],
  "materials": [
    {
      "name": "mat_SKP_RAL3020Verkehrsrot_51f20b90",
      "pbrMetallicRoughness": {
        "baseColorFactor": [
          0.780392,
          0.090196,
          0.070588,
          1
        ],
        "metallicFactor": 0,
        "roughnessFactor": 0.9372549020000001
      },
      "emissiveFactor": [
        0,
        0,
        0
      ],
      "alphaMode": "OPAQUE",
      "doubleSided": false
    },
    {
      "name": "mat_SKP_RAL9003Signalwei_51f20b90",
      "pbrMetallicRoughness": {
        "baseColorFactor": [
          1,
          1,
          1,
          1
        ],
        "metallicFactor": 0,
        "roughnessFactor": 0.9372549020000001
      },
      "emissiveFactor": [
        0,
        0,
        0
      ],
      "alphaMode": "OPAQUE",
      "doubleSided": false
    },
    {
      "name": "mat_SKP_RAL7035Lichtgrau_51f20b90",
      "pbrMetallicRoughness": {
        "baseColorFactor": [
          0.831373,
          0.85098,
          0.858824,
          1
        ],
        "metallicFactor": 0,
        "roughnessFactor": 0.9372549020000001
      },
      "emissiveFactor": [
        0,
        0,
        0
      ],
      "alphaMode": "OPAQUE",
      "doubleSided": false
    }
  ],
  "meshes": [
    {
      "name": "mesh_13-Mesh",
      "primitives": [
        {
          "attributes": {
            "POSITION": 0,
            "NORMAL": 1
          },
          "indices": 2,
          "material": 0,
          "mode": 4
        },
        {
          "attributes": {
            "POSITION": 0,
            "NORMAL": 1
          },
          "indices": 3,
          "material": 1,
          "mode": 4
        },
        {
          "attributes": {
            "POSITION": 0,
            "NORMAL": 1
          },
          "indices": 4,
          "material": 2,
          "mode": 4
        }
      ]
    }
  ],
  "nodes": [
    {
      "name": "mesh_13",
      "mesh": 0
    }
  ],
  "scene": 0,
  "scenes": [
    {
      "nodes": [
        0
      ]
    }
  ]
}
