{
  "accessors": [
    {
      "name": "mesh_2-Mesh_positions",
      "componentType": 5126,
      "count": 17931,
      "min": [
        5.47981595993042,
        -11.470752716064453,
        -3.1045210361480713
      ],
      "max": [
        125.47981262207031,
        138.5292510986328,
        116.89547729492188
      ],
      "type": "VEC3",
      "bufferView": 0,
      "byteOffset": 0
    },
    {
      "name": "mesh_2-Mesh_normals",
      "componentType": 5126,
      "count": 17931,
      "min": [
        -1,
        -1,
        -1
      ],
      "max": [
        1,
        1,
        1
      ],
      "type": "VEC3",
      "bufferView": 0,
      "byteOffset": 215172
    },
    {
      "name": "mesh_2-Mesh_texcoords",
      "componentType": 5126,
      "count": 17931,
      "min": [
        0.00559999980032444,
        0.03590000048279762
      ],
      "max": [
        1.8056000471115112,
        0.9641000032424927
      ],
      "type": "VEC2",
      "bufferView": 1,
      "byteOffset": 0
    },
    {
      "name": "mesh_2-Mesh_0_indices",
      "componentType": 5123,
      "count": 70404,
      "min": [
        0
      ],
      "max": [
        17930
      ],
      "type": "SCALAR",
      "bufferView": 2,
      "byteOffset": 0
    }
  ],
  "asset": {
    "generator": "obj2gltf",
    "version": "2.0"
  },
  "buffers": [
    {
      "name": "roundtable120x120x150cm",
      "byteLength": 1104192,
      "uri": "data:application/octet-stream;base64,"
    }
  ],
  "bufferViews": [
    {
      "name": "bufferView_0",
      "buffer": 0,
      "byteLength": 430344,
      "byteOffset": 0,
      "byteStride": 12,
      "target": 34962
    },
    {
      "name": "bufferView_1",
      "buffer": 0,
      "byteLength": 143448,
      "byteOffset": 430344,
      "byteStride": 8,
      "target": 34962
    },
    {
      "name": "bufferView_2",
      "buffer": 0,
      "byteLength": 140808,
      "byteOffset": 573792,
      "target": 34963
    },
    {
      "buffer": 0,
      "byteOffset": 714600,
      "byteLength": 389589
    }
  ],
  "images": [
    {
      "name": "037c0004",
      "mimeType": "image/png",
      "bufferView": 3
    }
  ],
  "materials": [
    {
      "name": "mat_Material8_a5a4ce69",
      "pbrMetallicRoughness": {
        "baseColorTexture": {
          "index": 0
        },
        "baseColorFactor": [
          1,
          1,
          1,
          1
        ],
        "metallicFactor": 0,
        "roughnessFactor": 0.9372549020000001
      },
      "emissiveFactor": [
        0,
        0,
        0
      ],
      "alphaMode": "OPAQUE",
      "doubleSided": false
    }
  ],
  "meshes": [
    {
      "name": "mesh_2-Mesh",
      "primitives": [
        {
          "attributes": {
            "POSITION": 0,
            "NORMAL": 1,
            "TEXCOORD_0": 2
          },
          "indices": 3,
          "material": 0,
          "mode": 4
        }
      ]
    }
  ],
  "nodes": [
    {
      "name": "mesh_2",
      "mesh": 0
    }
  ],
  "samplers": [
    {
      "magFilter": 9729,
      "minFilter": 9986,
      "wrapS": 10497,
      "wrapT": 10497
    }
  ],
  "scene": 0,
  "scenes": [
    {
      "nodes": [
        0
      ]
    }
  ],
  "textures": [
    {
      "name": "037c0004",
      "sampler": 0,
      "source": 0
    }
  ]
}
