{
  "accessors": [
    {
      "name": "mesh_0-Mesh_positions",
      "componentType": 5126,
      "count": 251,
      "min": [
        0.8016949892044067,
        -0.20517399907112122,
        -0.024907000362873077
      ],
      "max": [
        1.8016949892044067,
        0.7948259711265564,
        0.9750930070877075
      ],
      "type": "VEC3",
      "bufferView": 0,
      "byteOffset": 0
    },
    {
      "name": "mesh_0-Mesh_normals",
      "componentType": 5126,
      "count": 251,
      "min": [
        -0.8399999737739563,
        -0.12809999287128448,
        -1
      ],
      "max": [
        1,
        1,
        0.8355000019073486
      ],
      "type": "VEC3",
      "bufferView": 0,
      "byteOffset": 3012
    },
    {
      "name": "mesh_0-Mesh_texcoords",
      "componentType": 5126,
      "count": 251,
      "min": [
        -1,
        0
      ],
      "max": [
        1,
        2
      ],
      "type": "VEC2",
      "bufferView": 1,
      "byteOffset": 0
    },
    {
      "name": "mesh_0-Mesh_0_indices",
      "componentType": 5123,
      "count": 369,
      "min": [
        0
      ],
      "max": [
        250
      ],
      "type": "SCALAR",
      "bufferView": 2,
      "byteOffset": 0
    }
  ],
  "asset": {
    "generator": "obj2gltf",
    "version": "2.0"
  },
  "buffers": [
    {
      "name": "tavolotest",
      "byteLength": 654524,
      "uri": "data:application/octet-stream;base64,"
    }
  ],
  "bufferViews": [
    {
      "name": "bufferView_0",
      "buffer": 0,
      "byteLength": 6024,
      "byteOffset": 0,
      "byteStride": 12,
      "target": 34962
    },
    {
      "name": "bufferView_1",
      "buffer": 0,
      "byteLength": 2008,
      "byteOffset": 6024,
      "byteStride": 8,
      "target": 34962
    },
    {
      "name": "bufferView_2",
      "buffer": 0,
      "byteLength": 740,
      "byteOffset": 8032,
      "target": 34963
    },
    {
      "buffer": 0,
      "byteOffset": 8772,
      "byteLength": 303809
    },
    {
      "buffer": 0,
      "byteOffset": 312581,
      "byteLength": 341941
    }
  ],
  "images": [
    {
      "name": "acadd6e35b68_diffuse",
      "mimeType": "image/png",
      "bufferView": 3
    },
    {
      "name": "acadd6e35b68_bump",
      "mimeType": "image/png",
      "bufferView": 4
    }
  ],
  "materials": [
    {
      "name": "mat_acadd6e35b68",
      "pbrMetallicRoughness": {
        "baseColorTexture": {
          "index": 0
        },
        "baseColorFactor": [
          1,
          1,
          1,
          1
        ],
        "metallicFactor": 0,
        "roughnessFactor": 0.970588235
      },
      "normalTexture": {
        "index": 1
      },
      "emissiveFactor": [
        0,
        0,
        0
      ],
      "alphaMode": "OPAQUE",
      "doubleSided": false
    }
  ],
  "meshes": [
    {
      "name": "mesh_0-Mesh",
      "primitives": [
        {
          "attributes": {
            "POSITION": 0,
            "NORMAL": 1,
            "TEXCOORD_0": 2
          },
          "indices": 3,
          "material": 0,
          "mode": 4
        }
      ]
    }
  ],
  "nodes": [
    {
      "name": "mesh_0",
      "mesh": 0
    }
  ],
  "samplers": [
    {
      "magFilter": 9729,
      "minFilter": 9986,
      "wrapS": 10497,
      "wrapT": 10497
    }
  ],
  "scene": 0,
  "scenes": [
    {
      "nodes": [
        0
      ]
    }
  ],
  "textures": [
    {
      "name": "acadd6e35b68_diffuse",
      "sampler": 0,
      "source": 0
    },
    {
      "name": "acadd6e35b68_bump",
      "sampler": 0,
      "source": 1
    }
  ]
}
