{
  "accessors": [
    {
      "name": "mesh_10-Mesh_positions",
      "componentType": 5126,
      "count": 800,
      "min": [
        0.005541000049561262,
        0.0011370000429451466,
        -29.107648849487305
      ],
      "max": [
        400.00555419921875,
        300.0011291503906,
        70.89240264892578
      ],
      "type": "VEC3",
      "bufferView": 0,
      "byteOffset": 0
    },
    {
      "name": "mesh_10-Mesh_normals",
      "componentType": 5126,
      "count": 800,
      "min": [
        -1,
        -1,
        -1
      ],
      "max": [
        1,
        1,
        1
      ],
      "type": "VEC3",
      "bufferView": 0,
      "byteOffset": 9600
    },
    {
      "name": "mesh_10-Mesh_0_indices",
      "componentType": 5123,
      "count": 420,
      "min": [
        0
      ],
      "max": [
        167
      ],
      "type": "SCALAR",
      "bufferView": 1,
      "byteOffset": 0
    },
    {
      "name": "mesh_10-Mesh_1_indices",
      "componentType": 5123,
      "count": 1134,
      "min": [
        168
      ],
      "max": [
        771
      ],
      "type": "SCALAR",
      "bufferView": 1,
      "byteOffset": 840
    },
    {
      "name": "mesh_10-Mesh_2_indices",
      "componentType": 5123,
      "count": 42,
      "min": [
        772
      ],
      "max": [
        799
      ],
      "type": "SCALAR",
      "bufferView": 1,
      "byteOffset": 3108
    }
  ],
  "asset": {
    "generator": "obj2gltf",
    "version": "2.0"
  },
  "buffers": [
    {
      "name": "test3x4m",
      "byteLength": 22392,
      "uri": "data:application/octet-stream;base64,"
    }
  ],
  "bufferViews": [
    {
      "name": "bufferView_0",
      "buffer": 0,
      "byteLength": 19200,
      "byteOffset": 0,
      "byteStride": 12,
      "target": 34962
    },
    {
      "name": "bufferView_1",
      "buffer": 0,
      "byteLength": 3192,
      "byteOffset": 19200,
      "target": 34963
    }
  ],
  "materials": [
    {
      "name": "mat_SKP_RAL7035Lichtgrau_51f20b90",
      "pbrMetallicRoughness": {
        "baseColorFactor": [
          0.831373,
          0.85098,
          0.858824,
          1
        ],
        "metallicFactor": 0,
        "roughnessFactor": 0.9372549020000001
      },
      "emissiveFactor": [
        0,
        0,
        0
      ],
      "alphaMode": "OPAQUE",
      "doubleSided": false
    },
    {
      "name": "mat_SKP_RAL3020Verkehrsrot_51f20b90",
      "pbrMetallicRoughness": {
        "baseColorFactor": [
          0.780392,
          0.090196,
          0.070588,
          1
        ],
        "metallicFactor": 0,
        "roughnessFactor": 0.9372549020000001
      },
      "emissiveFactor": [
        0,
        0,
        0
      ],
      "alphaMode": "OPAQUE",
      "doubleSided": false
    },
    {
      "name": "mat_SKP_RAL9003Signalwei_51f20b90",
      "pbrMetallicRoughness": {
        "baseColorFactor": [
          1,
          1,
          1,
          1
        ],
        "metallicFactor": 0,
        "roughnessFactor": 0.9372549020000001
      },
      "emissiveFactor": [
        0,
        0,
        0
      ],
      "alphaMode": "OPAQUE",
      "doubleSided": false
    }
  ],
  "meshes": [
    {
      "name": "mesh_10-Mesh",
      "primitives": [
        {
          "attributes": {
            "POSITION": 0,
            "NORMAL": 1
          },
          "indices": 2,
          "material": 0,
          "mode": 4
        },
        {
          "attributes": {
            "POSITION": 0,
            "NORMAL": 1
          },
          "indices": 3,
          "material": 1,
          "mode": 4
        },
        {
          "attributes": {
            "POSITION": 0,
            "NORMAL": 1
          },
          "indices": 4,
          "material": 2,
          "mode": 4
        }
      ]
    }
  ],
  "nodes": [
    {
      "name": "mesh_10",
      "mesh": 0
    }
  ],
  "scene": 0,
  "scenes": [
    {
      "nodes": [
        0
      ]
    }
  ]
}
