{
  "accessors": [
    {
      "name": "mesh_2-Mesh_positions",
      "componentType": 5126,
      "count": 607,
      "min": [
        70.94786071777344,
        -0.00001700000029813964,
        -0.000003000000106112566
      ],
      "max": [
        270.9478759765625,
        100,
        100.00001525878906
      ],
      "type": "VEC3",
      "bufferView": 0,
      "byteOffset": 0
    },
    {
      "name": "mesh_2-Mesh_normals",
      "componentType": 5126,
      "count": 607,
      "min": [
        -1,
        -1,
        -1
      ],
      "max": [
        1,
        1,
        1
      ],
      "type": "VEC3",
      "bufferView": 0,
      "byteOffset": 7284
    },
    {
      "name": "mesh_2-Mesh_0_indices",
      "componentType": 5123,
      "count": 420,
      "min": [
        0
      ],
      "max": [
        167
      ],
      "type": "SCALAR",
      "bufferView": 1,
      "byteOffset": 0
    },
    {
      "name": "mesh_2-Mesh_1_indices",
      "componentType": 5123,
      "count": 750,
      "min": [
        168
      ],
      "max": [
        586
      ],
      "type": "SCALAR",
      "bufferView": 1,
      "byteOffset": 840
    },
    {
      "name": "mesh_2-Mesh_2_indices",
      "componentType": 5123,
      "count": 30,
      "min": [
        587
      ],
      "max": [
        606
      ],
      "type": "SCALAR",
      "bufferView": 1,
      "byteOffset": 2340
    }
  ],
  "asset": {
    "generator": "obj2gltf",
    "version": "2.0"
  },
  "buffers": [
    {
      "name": "test2x1x1m",
      "byteLength": 16968,
      "uri": "data:application/octet-stream;base64,"
    }
  ],
  "bufferViews": [
    {
      "name": "bufferView_0",
      "buffer": 0,
      "byteLength": 14568,
      "byteOffset": 0,
      "byteStride": 12,
      "target": 34962
    },
    {
      "name": "bufferView_1",
      "buffer": 0,
      "byteLength": 2400,
      "byteOffset": 14568,
      "target": 34963
    }
  ],
  "materials": [
    {
      "name": "mat_SKP_RAL7035Lichtgrau_a68a7cc6",
      "pbrMetallicRoughness": {
        "baseColorFactor": [
          0.831373,
          0.85098,
          0.858824,
          1
        ],
        "metallicFactor": 0,
        "roughnessFactor": 0.9372549020000001
      },
      "emissiveFactor": [
        0,
        0,
        0
      ],
      "alphaMode": "OPAQUE",
      "doubleSided": false
    },
    {
      "name": "mat_SKP_RAL5012Lichtblau_a68a7cc6",
      "pbrMetallicRoughness": {
        "baseColorFactor": [
          0.160784,
          0.45098,
          0.721569,
          1
        ],
        "metallicFactor": 0,
        "roughnessFactor": 0.9372549020000001
      },
      "emissiveFactor": [
        0,
        0,
        0
      ],
      "alphaMode": "OPAQUE",
      "doubleSided": false
    },
    {
      "name": "mat_SKP_RAL9003Signalwei_a68a7cc6",
      "pbrMetallicRoughness": {
        "baseColorFactor": [
          1,
          1,
          1,
          1
        ],
        "metallicFactor": 0,
        "roughnessFactor": 0.9372549020000001
      },
      "emissiveFactor": [
        0,
        0,
        0
      ],
      "alphaMode": "OPAQUE",
      "doubleSided": false
    }
  ],
  "meshes": [
    {
      "name": "mesh_2-Mesh",
      "primitives": [
        {
          "attributes": {
            "POSITION": 0,
            "NORMAL": 1
          },
          "indices": 2,
          "material": 0,
          "mode": 4
        },
        {
          "attributes": {
            "POSITION": 0,
            "NORMAL": 1
          },
          "indices": 3,
          "material": 1,
          "mode": 4
        },
        {
          "attributes": {
            "POSITION": 0,
            "NORMAL": 1
          },
          "indices": 4,
          "material": 2,
          "mode": 4
        }
      ]
    }
  ],
  "nodes": [
    {
      "name": "mesh_2",
      "mesh": 0
    }
  ],
  "scene": 0,
  "scenes": [
    {
      "nodes": [
        0
      ]
    }
  ]
}
