{
  "accessors": [
    {
      "name": "mesh_0-Mesh_positions",
      "componentType": 5126,
      "count": 1627,
      "min": [
        5.9339752197265625,
        0.1100120022892952,
        0.7106090188026428
      ],
      "max": [
        200.9340057373047,
        82.31002807617188,
        92.60062408447266
      ],
      "type": "VEC3",
      "bufferView": 0,
      "byteOffset": 0
    },
    {
      "name": "mesh_0-Mesh_normals",
      "componentType": 5126,
      "count": 1627,
      "min": [
        -1,
        -1,
        -1
      ],
      "max": [
        1,
        1,
        1
      ],
      "type": "VEC3",
      "bufferView": 0,
      "byteOffset": 19524
    },
    {
      "name": "mesh_0-Mesh_texcoords",
      "componentType": 5126,
      "count": 1627,
      "min": [
        -1,
        0
      ],
      "max": [
        1,
        2
      ],
      "type": "VEC2",
      "bufferView": 1,
      "byteOffset": 0
    },
    {
      "name": "mesh_0-Mesh_0_indices",
      "componentType": 5123,
      "count": 2382,
      "min": [
        0
      ],
      "max": [
        793
      ],
      "type": "SCALAR",
      "bufferView": 2,
      "byteOffset": 0
    },
    {
      "name": "mesh_0-Mesh_1_indices",
      "componentType": 5123,
      "count": 1668,
      "min": [
        794
      ],
      "max": [
        1626
      ],
      "type": "SCALAR",
      "bufferView": 2,
      "byteOffset": 4764
    }
  ],
  "asset": {
    "generator": "obj2gltf",
    "version": "2.0"
  },
  "buffers": [
    {
      "name": "asteria2",
      "byteLength": 555856,
      "uri": "data:application/octet-stream;base64,"
    }
  ],
  "bufferViews": [
    {
      "name": "bufferView_0",
      "buffer": 0,
      "byteLength": 39048,
      "byteOffset": 0,
      "byteStride": 12,
      "target": 34962
    },
    {
      "name": "bufferView_1",
      "buffer": 0,
      "byteLength": 13016,
      "byteOffset": 39048,
      "byteStride": 8,
      "target": 34962
    },
    {
      "name": "bufferView_2",
      "buffer": 0,
      "byteLength": 8100,
      "byteOffset": 52064,
      "target": 34963
    },
    {
      "buffer": 0,
      "byteOffset": 60164,
      "byteLength": 484463
    },
    {
      "buffer": 0,
      "byteOffset": 544627,
      "byteLength": 11227
    }
  ],
  "images": [
    {
      "name": "10400006",
      "mimeType": "image/png",
      "bufferView": 3
    },
    {
      "name": "10400003",
      "mimeType": "image/png",
      "bufferView": 4
    }
  ],
  "materials": [
    {
      "name": "mat_4fb6a76b81b64cf08c655c1935d9425c",
      "pbrMetallicRoughness": {
        "baseColorTexture": {
          "index": 0
        },
        "baseColorFactor": [
          1,
          1,
          1,
          1
        ],
        "metallicFactor": 0,
        "roughnessFactor": 0.898039216
      },
      "emissiveFactor": [
        0,
        0,
        0
      ],
      "alphaMode": "OPAQUE",
      "doubleSided": false
    },
    {
      "name": "mat_1613e20ff5a54c97b68280f529a6801c",
      "pbrMetallicRoughness": {
        "baseColorTexture": {
          "index": 1
        },
        "baseColorFactor": [
          1,
          1,
          1,
          1
        ],
        "metallicFactor": 0,
        "roughnessFactor": 0.92745098
      },
      "emissiveFactor": [
        0,
        0,
        0
      ],
      "alphaMode": "OPAQUE",
      "doubleSided": false
    }
  ],
  "meshes": [
    {
      "name": "mesh_0-Mesh",
      "primitives": [
        {
          "attributes": {
            "POSITION": 0,
            "NORMAL": 1,
            "TEXCOORD_0": 2
          },
          "indices": 3,
          "material": 0,
          "mode": 4
        },
        {
          "attributes": {
            "POSITION": 0,
            "NORMAL": 1,
            "TEXCOORD_0": 2
          },
          "indices": 4,
          "material": 1,
          "mode": 4
        }
      ]
    }
  ],
  "nodes": [
    {
      "name": "mesh_0",
      "mesh": 0
    }
  ],
  "samplers": [
    {
      "magFilter": 9729,
      "minFilter": 9986,
      "wrapS": 10497,
      "wrapT": 10497
    }
  ],
  "scene": 0,
  "scenes": [
    {
      "nodes": [
        0
      ]
    }
  ],
  "textures": [
    {
      "name": "10400006",
      "sampler": 0,
      "source": 0
    },
    {
      "name": "10400003",
      "sampler": 0,
      "source": 1
    }
  ]
}
