{
  "accessors": [
    {
      "name": "mesh_2-Mesh_positions",
      "componentType": 5126,
      "count": 3654,
      "min": [
        -28.894119262695312,
        -2.1468820571899414,
        6.1086201667785645
      ],
      "max": [
        191.1058807373047,
        76.3531494140625,
        111.6086196899414
      ],
      "type": "VEC3",
      "bufferView": 0,
      "byteOffset": 0
    },
    {
      "name": "mesh_2-Mesh_normals",
      "componentType": 5126,
      "count": 3654,
      "min": [
        -1,
        -1,
        -1
      ],
      "max": [
        1,
        1,
        1
      ],
      "type": "VEC3",
      "bufferView": 0,
      "byteOffset": 43848
    },
    {
      "name": "mesh_2-Mesh_texcoords",
      "componentType": 5126,
      "count": 3654,
      "min": [
        -5,
        -3.9995999336242676
      ],
      "max": [
        5,
        5.9980998039245605
      ],
      "type": "VEC2",
      "bufferView": 1,
      "byteOffset": 0
    },
    {
      "name": "mesh_2-Mesh_0_indices",
      "componentType": 5123,
      "count": 540,
      "min": [
        0
      ],
      "max": [
        207
      ],
      "type": "SCALAR",
      "bufferView": 2,
      "byteOffset": 0
    },
    {
      "name": "mesh_2-Mesh_1_indices",
      "componentType": 5123,
      "count": 1080,
      "min": [
        208
      ],
      "max": [
        679
      ],
      "type": "SCALAR",
      "bufferView": 2,
      "byteOffset": 1080
    },
    {
      "name": "mesh_2-Mesh_2_indices",
      "componentType": 5123,
      "count": 8442,
      "min": [
        680
      ],
      "max": [
        3543
      ],
      "type": "SCALAR",
      "bufferView": 2,
      "byteOffset": 3240
    },
    {
      "name": "mesh_2-Mesh_3_indices",
      "componentType": 5123,
      "count": 252,
      "min": [
        3544
      ],
      "max": [
        3653
      ],
      "type": "SCALAR",
      "bufferView": 2,
      "byteOffset": 20124
    }
  ],
  "asset": {
    "generator": "obj2gltf",
    "version": "2.0"
  },
  "buffers": [
    {
      "name": "vessinna",
      "byteLength": 1623748,
      "uri": "data:application/octet-stream;base64,"
    }
  ],
  "bufferViews": [
    {
      "name": "bufferView_0",
      "buffer": 0,
      "byteLength": 87696,
      "byteOffset": 0,
      "byteStride": 12,
      "target": 34962
    },
    {
      "name": "bufferView_1",
      "buffer": 0,
      "byteLength": 29232,
      "byteOffset": 87696,
      "byteStride": 8,
      "target": 34962
    },
    {
      "name": "bufferView_2",
      "buffer": 0,
      "byteLength": 20628,
      "byteOffset": 116928,
      "target": 34963
    },
    {
      "buffer": 0,
      "byteOffset": 137556,
      "byteLength": 356641
    },
    {
      "buffer": 0,
      "byteOffset": 494197,
      "byteLength": 576592
    },
    {
      "buffer": 0,
      "byteOffset": 1070789,
      "byteLength": 34247
    },
    {
      "buffer": 0,
      "byteOffset": 1105036,
      "byteLength": 484463
    },
    {
      "buffer": 0,
      "byteOffset": 1589499,
      "byteLength": 34247
    }
  ],
  "images": [
    {
      "name": "acad631f407c_leather_grey",
      "mimeType": "image/png",
      "bufferView": 3
    },
    {
      "name": "acad631f407c_leather_grey_normal",
      "mimeType": "image/png",
      "bufferView": 4
    },
    {
      "name": "1d800008",
      "mimeType": "image/png",
      "bufferView": 5
    },
    {
      "name": "1d800007",
      "mimeType": "image/png",
      "bufferView": 6
    },
    {
      "name": "1d800006",
      "mimeType": "image/png",
      "bufferView": 7
    }
  ],
  "materials": [
    {
      "name": "mat_acad631f407c",
      "pbrMetallicRoughness": {
        "baseColorTexture": {
          "index": 0
        },
        "baseColorFactor": [
          1,
          1,
          1,
          1
        ],
        "metallicFactor": 0,
        "roughnessFactor": 0.976470588
      },
      "normalTexture": {
        "index": 1
      },
      "emissiveFactor": [
        0,
        0,
        0
      ],
      "alphaMode": "OPAQUE",
      "doubleSided": false
    },
    {
      "name": "mat_mat4_3ab2bde5",
      "pbrMetallicRoughness": {
        "baseColorTexture": {
          "index": 2
        },
        "baseColorFactor": [
          1,
          1,
          1,
          1
        ],
        "metallicFactor": 0,
        "roughnessFactor": 0.9372549020000001
      },
      "emissiveFactor": [
        0,
        0,
        0
      ],
      "alphaMode": "OPAQUE",
      "doubleSided": false
    },
    {
      "name": "mat_779e97b63e3a4c6c8edf7e3849d1d58c",
      "pbrMetallicRoughness": {
        "baseColorTexture": {
          "index": 3
        },
        "baseColorFactor": [
          1,
          1,
          1,
          1
        ],
        "metallicFactor": 0,
        "roughnessFactor": 0.898039216
      },
      "emissiveFactor": [
        0,
        0,
        0
      ],
      "alphaMode": "OPAQUE",
      "doubleSided": false
    },
    {
      "name": "mat_90cbb75fb3584938aa0bbca55d9faed7",
      "pbrMetallicRoughness": {
        "baseColorTexture": {
          "index": 4
        },
        "baseColorFactor": [
          1,
          1,
          1,
          1
        ],
        "metallicFactor": 0,
        "roughnessFactor": 0.9372549020000001
      },
      "emissiveFactor": [
        0,
        0,
        0
      ],
      "alphaMode": "OPAQUE",
      "doubleSided": false
    }
  ],
  "meshes": [
    {
      "name": "mesh_2-Mesh",
      "primitives": [
        {
          "attributes": {
            "POSITION": 0,
            "NORMAL": 1,
            "TEXCOORD_0": 2
          },
          "indices": 3,
          "material": 0,
          "mode": 4
        },
        {
          "attributes": {
            "POSITION": 0,
            "NORMAL": 1,
            "TEXCOORD_0": 2
          },
          "indices": 4,
          "material": 1,
          "mode": 4
        },
        {
          "attributes": {
            "POSITION": 0,
            "NORMAL": 1,
            "TEXCOORD_0": 2
          },
          "indices": 5,
          "material": 2,
          "mode": 4
        },
        {
          "attributes": {
            "POSITION": 0,
            "NORMAL": 1,
            "TEXCOORD_0": 2
          },
          "indices": 6,
          "material": 3,
          "mode": 4
        }
      ]
    }
  ],
  "nodes": [
    {
      "name": "mesh_2",
      "mesh": 0
    }
  ],
  "samplers": [
    {
      "magFilter": 9729,
      "minFilter": 9986,
      "wrapS": 10497,
      "wrapT": 10497
    }
  ],
  "scene": 0,
  "scenes": [
    {
      "nodes": [
        0
      ]
    }
  ],
  "textures": [
    {
      "name": "acad631f407c_leather_grey",
      "sampler": 0,
      "source": 0
    },
    {
      "name": "acad631f407c_leather_grey_normal",
      "sampler": 0,
      "source": 1
    },
    {
      "name": "1d800008",
      "sampler": 0,
      "source": 2
    },
    {
      "name": "1d800007",
      "sampler": 0,
      "source": 3
    },
    {
      "name": "1d800006",
      "sampler": 0,
      "source": 4
    }
  ]
}
