{
  "accessors": [
    {
      "name": "mesh_2-Mesh_positions",
      "componentType": 5126,
      "count": 3661,
      "min": [
        -9.980472564697266,
        -3.816042900085449,
        -11.0372314453125
      ],
      "max": [
        210.01953125,
        74.68397521972656,
        94.4627685546875
      ],
      "type": "VEC3",
      "bufferView": 0,
      "byteOffset": 0
    },
    {
      "name": "mesh_2-Mesh_normals",
      "componentType": 5126,
      "count": 3661,
      "min": [
        -1,
        -1,
        -1
      ],
      "max": [
        1,
        1,
        1
      ],
      "type": "VEC3",
      "bufferView": 0,
      "byteOffset": 43932
    },
    {
      "name": "mesh_2-Mesh_texcoords",
      "componentType": 5126,
      "count": 3661,
      "min": [
        -5,
        -3.9995999336242676
      ],
      "max": [
        5,
        5.9980998039245605
      ],
      "type": "VEC2",
      "bufferView": 1,
      "byteOffset": 0
    },
    {
      "name": "mesh_2-Mesh_0_indices",
      "componentType": 5123,
      "count": 540,
      "min": [
        0
      ],
      "max": [
        207
      ],
      "type": "SCALAR",
      "bufferView": 2,
      "byteOffset": 0
    },
    {
      "name": "mesh_2-Mesh_1_indices",
      "componentType": 5123,
      "count": 1212,
      "min": [
        208
      ],
      "max": [
        749
      ],
      "type": "SCALAR",
      "bufferView": 2,
      "byteOffset": 1080
    },
    {
      "name": "mesh_2-Mesh_2_indices",
      "componentType": 5123,
      "count": 120,
      "min": [
        750
      ],
      "max": [
        789
      ],
      "type": "SCALAR",
      "bufferView": 2,
      "byteOffset": 3504
    },
    {
      "name": "mesh_2-Mesh_3_indices",
      "componentType": 5123,
      "count": 8442,
      "min": [
        790
      ],
      "max": [
        3660
      ],
      "type": "SCALAR",
      "bufferView": 2,
      "byteOffset": 3744
    }
  ],
  "asset": {
    "generator": "obj2gltf",
    "version": "2.0"
  },
  "buffers": [
    {
      "name": "levana",
      "byteLength": 1632028,
      "uri": "data:application/octet-stream;base64,"
    }
  ],
  "bufferViews": [
    {
      "name": "bufferView_0",
      "buffer": 0,
      "byteLength": 87864,
      "byteOffset": 0,
      "byteStride": 12,
      "target": 34962
    },
    {
      "name": "bufferView_1",
      "buffer": 0,
      "byteLength": 29288,
      "byteOffset": 87864,
      "byteStride": 8,
      "target": 34962
    },
    {
      "name": "bufferView_2",
      "buffer": 0,
      "byteLength": 20628,
      "byteOffset": 117152,
      "target": 34963
    },
    {
      "buffer": 0,
      "byteOffset": 137780,
      "byteLength": 356641
    },
    {
      "buffer": 0,
      "byteOffset": 494421,
      "byteLength": 576592
    },
    {
      "buffer": 0,
      "byteOffset": 1071013,
      "byteLength": 38276
    },
    {
      "buffer": 0,
      "byteOffset": 1109289,
      "byteLength": 38276
    },
    {
      "buffer": 0,
      "byteOffset": 1147565,
      "byteLength": 484463
    }
  ],
  "images": [
    {
      "name": "acad631f407c_leather_grey",
      "mimeType": "image/png",
      "bufferView": 3
    },
    {
      "name": "acad631f407c_leather_grey_normal",
      "mimeType": "image/png",
      "bufferView": 4
    },
    {
      "name": "13d40003",
      "mimeType": "image/png",
      "bufferView": 5
    },
    {
      "name": "13d40005",
      "mimeType": "image/png",
      "bufferView": 6
    },
    {
      "name": "13d40002",
      "mimeType": "image/png",
      "bufferView": 7
    }
  ],
  "materials": [
    {
      "name": "mat_acad631f407c",
      "pbrMetallicRoughness": {
        "baseColorTexture": {
          "index": 0
        },
        "baseColorFactor": [
          1,
          1,
          1,
          1
        ],
        "metallicFactor": 0,
        "roughnessFactor": 0.976470588
      },
      "normalTexture": {
        "index": 1
      },
      "emissiveFactor": [
        0,
        0,
        0
      ],
      "alphaMode": "OPAQUE",
      "doubleSided": false
    },
    {
      "name": "mat_0a9ff4f010564c3ea4a51b08b238e0ef",
      "pbrMetallicRoughness": {
        "baseColorTexture": {
          "index": 2
        },
        "baseColorFactor": [
          1,
          1,
          1,
          1
        ],
        "metallicFactor": 0,
        "roughnessFactor": 0.919607843
      },
      "emissiveFactor": [
        0,
        0,
        0
      ],
      "alphaMode": "OPAQUE",
      "doubleSided": false
    },
    {
      "name": "mat_mat4_3ab2bde5",
      "pbrMetallicRoughness": {
        "baseColorTexture": {
          "index": 3
        },
        "baseColorFactor": [
          1,
          1,
          1,
          1
        ],
        "metallicFactor": 0,
        "roughnessFactor": 0.919607843
      },
      "emissiveFactor": [
        0,
        0,
        0
      ],
      "alphaMode": "OPAQUE",
      "doubleSided": false
    },
    {
      "name": "mat_b6505f46c52e4f13a1820baaf6797d92",
      "pbrMetallicRoughness": {
        "baseColorTexture": {
          "index": 4
        },
        "baseColorFactor": [
          1,
          1,
          1,
          1
        ],
        "metallicFactor": 0,
        "roughnessFactor": 0.898039216
      },
      "emissiveFactor": [
        0,
        0,
        0
      ],
      "alphaMode": "OPAQUE",
      "doubleSided": false
    }
  ],
  "meshes": [
    {
      "name": "mesh_2-Mesh",
      "primitives": [
        {
          "attributes": {
            "POSITION": 0,
            "NORMAL": 1,
            "TEXCOORD_0": 2
          },
          "indices": 3,
          "material": 0,
          "mode": 4
        },
        {
          "attributes": {
            "POSITION": 0,
            "NORMAL": 1,
            "TEXCOORD_0": 2
          },
          "indices": 4,
          "material": 1,
          "mode": 4
        },
        {
          "attributes": {
            "POSITION": 0,
            "NORMAL": 1,
            "TEXCOORD_0": 2
          },
          "indices": 5,
          "material": 2,
          "mode": 4
        },
        {
          "attributes": {
            "POSITION": 0,
            "NORMAL": 1,
            "TEXCOORD_0": 2
          },
          "indices": 6,
          "material": 3,
          "mode": 4
        }
      ]
    }
  ],
  "nodes": [
    {
      "name": "mesh_2",
      "mesh": 0
    }
  ],
  "samplers": [
    {
      "magFilter": 9729,
      "minFilter": 9986,
      "wrapS": 10497,
      "wrapT": 10497
    }
  ],
  "scene": 0,
  "scenes": [
    {
      "nodes": [
        0
      ]
    }
  ],
  "textures": [
    {
      "name": "acad631f407c_leather_grey",
      "sampler": 0,
      "source": 0
    },
    {
      "name": "acad631f407c_leather_grey_normal",
      "sampler": 0,
      "source": 1
    },
    {
      "name": "13d40003",
      "sampler": 0,
      "source": 2
    },
    {
      "name": "13d40005",
      "sampler": 0,
      "source": 3
    },
    {
      "name": "13d40002",
      "sampler": 0,
      "source": 4
    }
  ]
}
