{
  "accessors": [
    {
      "name": "mesh_4-Mesh_positions",
      "componentType": 5126,
      "count": 10696,
      "min": [
        0.23607300221920013,
        -1.9165290594100952,
        3.943186044692993
      ],
      "max": [
        99.23607635498047,
        43.283477783203125,
        57.30318832397461
      ],
      "type": "VEC3",
      "bufferView": 0,
      "byteOffset": 0
    },
    {
      "name": "mesh_4-Mesh_normals",
      "componentType": 5126,
      "count": 10696,
      "min": [
        -1,
        -1,
        -1
      ],
      "max": [
        1,
        1,
        0.9994999766349792
      ],
      "type": "VEC3",
      "bufferView": 0,
      "byteOffset": 128352
    },
    {
      "name": "mesh_4-Mesh_texcoords",
      "componentType": 5126,
      "count": 10696,
      "min": [
        -1,
        0
      ],
      "max": [
        1,
        2
      ],
      "type": "VEC2",
      "bufferView": 1,
      "byteOffset": 0
    },
    {
      "name": "mesh_4-Mesh_0_indices",
      "componentType": 5123,
      "count": 1743,
      "min": [
        0
      ],
      "max": [
        427
      ],
      "type": "SCALAR",
      "bufferView": 2,
      "byteOffset": 0
    },
    {
      "name": "mesh_4-Mesh_1_indices",
      "componentType": 5123,
      "count": 31200,
      "min": [
        428
      ],
      "max": [
        10695
      ],
      "type": "SCALAR",
      "bufferView": 2,
      "byteOffset": 3488
    }
  ],
  "asset": {
    "generator": "obj2gltf",
    "version": "2.0"
  },
  "buffers": [
    {
      "name": "argentevsdoricvs",
      "byteLength": 930900,
      "uri": "data:application/octet-stream;base64,"
    }
  ],
  "bufferViews": [
    {
      "name": "bufferView_0",
      "buffer": 0,
      "byteLength": 256704,
      "byteOffset": 0,
      "byteStride": 12,
      "target": 34962
    },
    {
      "name": "bufferView_1",
      "buffer": 0,
      "byteLength": 85568,
      "byteOffset": 256704,
      "byteStride": 8,
      "target": 34962
    },
    {
      "name": "bufferView_2",
      "buffer": 0,
      "byteLength": 65888,
      "byteOffset": 342272,
      "target": 34963
    },
    {
      "buffer": 0,
      "byteOffset": 408160,
      "byteLength": 484463
    },
    {
      "buffer": 0,
      "byteOffset": 892623,
      "byteLength": 38276
    }
  ],
  "images": [
    {
      "name": "28a40002",
      "mimeType": "image/png",
      "bufferView": 3
    },
    {
      "name": "28a40004",
      "mimeType": "image/png",
      "bufferView": 4
    }
  ],
  "materials": [
    {
      "name": "mat_c1fad94562fe4e1abd438c47c68c6a0f",
      "pbrMetallicRoughness": {
        "baseColorTexture": {
          "index": 0
        },
        "baseColorFactor": [
          1,
          1,
          1,
          1
        ],
        "metallicFactor": 0,
        "roughnessFactor": 0.898039216
      },
      "emissiveFactor": [
        0,
        0,
        0
      ],
      "alphaMode": "OPAQUE",
      "doubleSided": false
    },
    {
      "name": "mat_e087863bb72e44ab893f4f659f09b62d",
      "pbrMetallicRoughness": {
        "baseColorTexture": {
          "index": 1
        },
        "baseColorFactor": [
          1,
          1,
          1,
          1
        ],
        "metallicFactor": 0,
        "roughnessFactor": 0.919607843
      },
      "emissiveFactor": [
        0,
        0,
        0
      ],
      "alphaMode": "OPAQUE",
      "doubleSided": false
    }
  ],
  "meshes": [
    {
      "name": "mesh_4-Mesh",
      "primitives": [
        {
          "attributes": {
            "POSITION": 0,
            "NORMAL": 1,
            "TEXCOORD_0": 2
          },
          "indices": 3,
          "material": 0,
          "mode": 4
        },
        {
          "attributes": {
            "POSITION": 0,
            "NORMAL": 1,
            "TEXCOORD_0": 2
          },
          "indices": 4,
          "material": 1,
          "mode": 4
        }
      ]
    }
  ],
  "nodes": [
    {
      "name": "mesh_4",
      "mesh": 0
    }
  ],
  "samplers": [
    {
      "magFilter": 9729,
      "minFilter": 9986,
      "wrapS": 10497,
      "wrapT": 10497
    }
  ],
  "scene": 0,
  "scenes": [
    {
      "nodes": [
        0
      ]
    }
  ],
  "textures": [
    {
      "name": "28a40002",
      "sampler": 0,
      "source": 0
    },
    {
      "name": "28a40004",
      "sampler": 0,
      "source": 1
    }
  ]
}
