{
  "accessors": [
    {
      "bufferView": 2,
      "componentType": 5126,
      "count": 743,
      "max": [
        0.23494836688041687,
        0.37464958429336548,
        0.006635208148509264
      ],
      "min": [
        -0.23040594160556793,
        -0.17579951882362366,
        -0.39621138572692871
      ],
      "type": "VEC3"
    },
    {
      "bufferView": 2,
      "byteOffset": 8916,
      "componentType": 5126,
      "count": 743,
      "max": [
        0.99999594688415527,
        0.99936491250991821,
        0.99999988079071045
      ],
      "min": [
        -0.99992632865905762,
        -0.9994128942489624,
        -0.99999988079071045
      ],
      "type": "VEC3"
    },
    {
      "bufferView": 3,
      "componentType": 5126,
      "count": 743,
      "max": [
        1,
        0,
        -0,
        1
      ],
      "min": [
        1,
        0,
        -0,
        1
      ],
      "type": "VEC4"
    },
    {
      "bufferView": 0,
      "componentType": 5125,
      "count": 3990,
      "max": [
        742
      ],
      "min": [
        0
      ],
      "type": "SCALAR"
    },
    {
      "bufferView": 2,
      "byteOffset": 17832,
      "componentType": 5126,
      "count": 8217,
      "max": [
        0.29828250408172607,
        0.2982352077960968,
        -0.00014762878709007055
      ],
      "min": [
        -0.29776221513748169,
        -0.29798662662506104,
        -0.051964834332466125
      ],
      "type": "VEC3"
    },
    {
      "bufferView": 2,
      "byteOffset": 116436,
      "componentType": 5126,
      "count": 8217,
      "max": [
        0.99282962083816528,
        0.99528259038925171,
        1
      ],
      "min": [
        -0.98556351661682129,
        -0.98087775707244873,
        -1
      ],
      "type": "VEC3"
    },
    {
      "bufferView": 3,
      "byteOffset": 11888,
      "componentType": 5126,
      "count": 8217,
      "max": [
        0.99174928665161133,
        1,
        0.99853956699371338,
        1
      ],
      "min": [
        -1,
        -0.93062043190002441,
        -0.9990389347076416,
        -1
      ],
      "type": "VEC4"
    },
    {
      "bufferView": 1,
      "componentType": 5126,
      "count": 8217,
      "max": [
        0.9986223578453064,
        1
      ],
      "min": [
        0,
        0
      ],
      "type": "VEC2"
    },
    {
      "bufferView": 0,
      "byteOffset": 15960,
      "componentType": 5125,
      "count": 42723,
      "max": [
        8216
      ],
      "min": [
        0
      ],
      "type": "SCALAR"
    },
    {
      "bufferView": 2,
      "byteOffset": 215040,
      "componentType": 5126,
      "count": 3014,
      "max": [
        0.29844352602958679,
        0.2984466552734375,
        -0.00031753539224155247
      ],
      "min": [
        -0.29844450950622559,
        -0.2984430193901062,
        -0.051797598600387573
      ],
      "type": "VEC3"
    },
    {
      "bufferView": 2,
      "byteOffset": 251208,
      "componentType": 5126,
      "count": 3014,
      "max": [
        0.9999997615814209,
        1,
        0.92490720748901367
      ],
      "min": [
        -1,
        -1,
        -0.92557799816131592
      ],
      "type": "VEC3"
    },
    {
      "bufferView": 3,
      "byteOffset": 143360,
      "componentType": 5126,
      "count": 3014,
      "max": [
        1,
        1,
        0.18547543883323669,
        1
      ],
      "min": [
        -1,
        -1,
        -0.10405055433511734,
        -1
      ],
      "type": "VEC4"
    },
    {
      "bufferView": 1,
      "byteOffset": 65736,
      "componentType": 5126,
      "count": 3014,
      "max": [
        1.0100197792053223,
        1
      ],
      "min": [
        -0.01001971960067749,
        0
      ],
      "type": "VEC2"
    },
    {
      "bufferView": 0,
      "byteOffset": 186852,
      "componentType": 5125,
      "count": 13281,
      "max": [
        3013
      ],
      "min": [
        0
      ],
      "type": "SCALAR"
    },
    {
      "bufferView": 2,
      "byteOffset": 287376,
      "componentType": 5126,
      "count": 4,
      "max": [
        0.52232670783996582,
        0.52233397960662842,
        2.1175823208040965e-24
      ],
      "min": [
        -0.52230745553970337,
        -0.52234154939651489,
        -2.1175823208040965e-24
      ],
      "type": "VEC3"
    },
    {
      "bufferView": 2,
      "byteOffset": 287424,
      "componentType": 5126,
      "count": 4,
      "max": [
        0,
        0,
        -1
      ],
      "min": [
        0,
        0,
        -1
      ],
      "type": "VEC3"
    },
    {
      "bufferView": 3,
      "byteOffset": 191584,
      "componentType": 5126,
      "count": 4,
      "max": [
        -1,
        0,
        -0,
        1
      ],
      "min": [
        -1,
        0,
        -0,
        1
      ],
      "type": "VEC4"
    },
    {
      "bufferView": 1,
      "byteOffset": 89848,
      "componentType": 5126,
      "count": 4,
      "max": [
        1,
        1
      ],
      "min": [
        0,
        0
      ],
      "type": "VEC2"
    },
    {
      "bufferView": 0,
      "byteOffset": 239976,
      "componentType": 5125,
      "count": 6,
      "max": [
        3
      ],
      "min": [
        0
      ],
      "type": "SCALAR"
    }
  ],
  "asset": {
    "generator": "Sketchfab (OSG glTF plugin)",
    "version": "2.0"
  },
  "bufferViews": [
    {
      "buffer": 0,
      "byteLength": 240000,
      "byteOffset": 0,
      "name": "floatBufferViews",
      "target": 34963
    },
    {
      "buffer": 0,
      "byteLength": 89880,
      "byteOffset": 240000,
      "byteStride": 8,
      "name": "floatBufferViews",
      "target": 34962
    },
    {
      "buffer": 0,
      "byteLength": 287472,
      "byteOffset": 329880,
      "byteStride": 12,
      "name": "floatBufferViews",
      "target": 34962
    },
    {
      "buffer": 0,
      "byteLength": 191648,
      "byteOffset": 617352,
      "byteStride": 16,
      "name": "floatBufferViews",
      "target": 34962
    }
  ],
  "buffers": [
    {
      "byteLength": 809000,
      "uri": "scene.bin"
    }
  ],
  "images": [
    {
      "uri": "textures/spec_%23000000_39_Material%232_wf_100_TADN5432_baseColor.jpeg"
    },
    {
      "uri": "textures/shadow_mtl_TADN5432_baseColor.jpeg"
    },
    {
      "uri": "textures/spec_%23000000_39_Material%231_wf_72_TADN5432_baseColor.jpeg"
    }
  ],
  "materials": [
    {
      "doubleSided": false,
      "name": "spec_#050505_19_Material#3_wf_7_TADN5432",
      "pbrMetallicRoughness": {
        "baseColorFactor": [
          0.11070199999999999,
          0.11070199999999999,
          0.11070199999999999,
          1
        ],
        "metallicFactor": 0,
        "roughnessFactor": 0.5
      }
    },
    {
      "doubleSided": false,
      "name": "spec_#000000_39_Material#1_wf_72_TADN5432",
      "pbrMetallicRoughness": {
        "baseColorFactor": [
          1,
          1,
          1,
          1
        ],
        "baseColorTexture": {
          "index": 2,
          "texCoord": 0
        },
        "metallicFactor": 0,
        "roughnessFactor": 0.5
      }
    },
    {
      "doubleSided": false,
      "name": "spec_#000000_39_Material#2_wf_100_TADN5432",
      "pbrMetallicRoughness": {
        "baseColorFactor": [
          1,
          1,
          1,
          1
        ],
        "baseColorTexture": {
          "index": 0,
          "texCoord": 0
        },
        "metallicFactor": 0,
        "roughnessFactor": 0.5
      }
    },
    {
      "doubleSided": false,
      "emissiveFactor": [
        0,
        0,
        0
      ],
      "name": "shadow_mtl_TADN5432",
      "normalFactor": 1,
      "occlusionFactor": 1,
      "pbrMetallicRoughness": {
        "baseColorFactor": [
          1,
          1,
          1,
          1
        ],
        "baseColorTexture": {
          "index": 1,
          "texCoord": 0
        },
        "metallicFactor": 0,
        "roughnessFactor": 0.59999999999999998
      }
    }
  ],
  "meshes": [
    {
      "primitives": [
        {
          "attributes": {
            "NORMAL": 1,
            "POSITION": 0,
            "TANGENT": 2
          },
          "indices": 3,
          "material": 0,
          "mode": 4
        }
      ]
    },
    {
      "primitives": [
        {
          "attributes": {
            "NORMAL": 5,
            "POSITION": 4,
            "TANGENT": 6,
            "TEXCOORD_0": 7
          },
          "indices": 8,
          "material": 1,
          "mode": 4
        }
      ]
    },
    {
      "primitives": [
        {
          "attributes": {
            "NORMAL": 10,
            "POSITION": 9,
            "TANGENT": 11,
            "TEXCOORD_0": 12
          },
          "indices": 13,
          "material": 2,
          "mode": 4
        }
      ]
    },
    {
      "primitives": [
        {
          "attributes": {
            "NORMAL": 15,
            "POSITION": 14,
            "TANGENT": 16,
            "TEXCOORD_0": 17
          },
          "indices": 18,
          "material": 3,
          "mode": 4
        }
      ]
    }
  ],
  "nodes": [
    {
      "children": [
        1
      ],
      "name": "RootNode (gltf orientation matrix)",
      "rotation": [
        -0.70710678118654746,
        -0,
        -0,
        0.70710678118654757
      ]
    },
    {
      "children": [
        2
      ],
      "name": "RootNode (model correction matrix)"
    },
    {
      "children": [
        3
      ],
      "name": "root"
    },
    {
      "children": [
        4
      ],
      "matrix": [
        1,
        0,
        0,
        0,
        0,
        2.2204460492503131e-16,
        1,
        0,
        0,
        -1,
        2.2204460492503131e-16,
        0,
        0,
        0,
        0,
        1
      ],
      "name": "Correction matrix"
    },
    {
      "children": [
        5
      ],
      "name": "GLTF_SceneRootNode"
    },
    {
      "children": [
        6
      ],
      "matrix": [
        -1,
        0,
        -8.7422776573475858e-08,
        0,
        0,
        1,
        0,
        0,
        8.7422776573475858e-08,
        0,
        -1,
        0,
        0,
        0,
        0,
        1
      ],
      "name": "UnityGlTF_correctionMatrix_0"
    },
    {
      "children": [
        7,
        10,
        13,
        16
      ],
      "name": "node_TADN5432_v6_LOD2_-11810_4"
    },
    {
      "children": [
        9
      ],
      "matrix": [
        -0.014408494562919705,
        0.0089321133365544217,
        -0.99985629599246573,
        0,
        -0.10717097911535989,
        0.994185939772533,
        0.010425852198286449,
        0,
        0.9941361961622186,
        0.10730579905088244,
        -0.013367459375895896,
        0,
        0.2043336033821106,
        0.2193513959646225,
        -0.0013884459622204304,
        1
      ],
      "name": "node_not_clear_obj_0_v6_-11814_5"
    },
    {
      "mesh": 0,
      "name": ""
    },
    {
      "children": [
        8
      ],
      "name": "Geode"
    },
    {
      "children": [
        12
      ],
      "matrix": [
        0.98216289496642584,
        0,
        -0.18803203916133407,
        0,
        0.18803203916133407,
        -2.2204460492503131e-16,
        0.98216289496642606,
        0,
        0,
        -1.0000000000000002,
        -2.2204460492503131e-16,
        0,
        -0.026325320824980736,
        0.55160069465637207,
        -0.0010478890035301447,
        1
      ],
      "name": "node_not_clear_obj_1_v6_-11816_3"
    },
    {
      "mesh": 1,
      "name": ""
    },
    {
      "children": [
        11
      ],
      "name": "Geode"
    },
    {
      "children": [
        15
      ],
      "matrix": [
        0.98216289496642584,
        0,
        -0.18803203916133407,
        0,
        0.18803203916133407,
        -2.2204460492503131e-16,
        0.98216289496642606,
        0,
        0,
        -1.0000000000000002,
        -2.2204460492503131e-16,
        0,
        -0.026325320824980736,
        0.55160069465637207,
        -0.0010478890035301447,
        1
      ],
      "name": "node_not_clear_obj_2_v6_-11818_2"
    },
    {
      "mesh": 2,
      "name": ""
    },
    {
      "children": [
        14
      ],
      "name": "Geode"
    },
    {
      "children": [
        18
      ],
      "matrix": [
        1,
        -0,
        0,
        0,
        0,
        0,
        1,
        0,
        -0,
        -1,
        0,
        0,
        0,
        0,
        0,
        1
      ],
      "name": "node_shadow_plane_v6_-11820_1"
    },
    {
      "mesh": 3,
      "name": ""
    },
    {
      "children": [
        17
      ],
      "name": "Geode"
    }
  ],
  "samplers": [
    {
      "magFilter": 9729,
      "minFilter": 9987,
      "wrapS": 10497,
      "wrapT": 10497
    }
  ],
  "scene": 0,
  "scenes": [
    {
      "name": "OSG_Scene",
      "nodes": [
        0
      ]
    }
  ],
  "textures": [
    {
      "sampler": 0,
      "source": 0
    },
    {
      "sampler": 0,
      "source": 1
    },
    {
      "sampler": 0,
      "source": 2
    }
  ]
}

