{
  "accessors": [
    {
      "name": "mesh_2-Mesh_positions",
      "componentType": 5126,
      "count": 3614,
      "min": [
        0,
        -0.000012000000424450263,
        -6.318666934967041
      ],
      "max": [
        195,
        82,
        85.57133483886719
      ],
      "type": "VEC3",
      "bufferView": 0,
      "byteOffset": 0
    },
    {
      "name": "mesh_2-Mesh_normals",
      "componentType": 5126,
      "count": 3614,
      "min": [
        -1,
        -1,
        -1
      ],
      "max": [
        1,
        1,
        1
      ],
      "type": "VEC3",
      "bufferView": 0,
      "byteOffset": 43368
    },
    {
      "name": "mesh_2-Mesh_texcoords",
      "componentType": 5126,
      "count": 3614,
      "min": [
        -1,
        0
      ],
      "max": [
        1,
        2
      ],
      "type": "VEC2",
      "bufferView": 1,
      "byteOffset": 0
    },
    {
      "name": "mesh_2-Mesh_0_indices",
      "componentType": 5123,
      "count": 4764,
      "min": [
        0
      ],
      "max": [
        1539
      ],
      "type": "SCALAR",
      "bufferView": 2,
      "byteOffset": 0
    },
    {
      "name": "mesh_2-Mesh_1_indices",
      "componentType": 5123,
      "count": 1668,
      "min": [
        1540
      ],
      "max": [
        2358
      ],
      "type": "SCALAR",
      "bufferView": 2,
      "byteOffset": 9528
    },
    {
      "name": "mesh_2-Mesh_2_indices",
      "componentType": 5123,
      "count": 1668,
      "min": [
        2359
      ],
      "max": [
        3613
      ],
      "type": "SCALAR",
      "bufferView": 2,
      "byteOffset": 12864
    }
  ],
  "asset": {
    "generator": "obj2gltf",
    "version": "2.0"
  },
  "buffers": [
    {
      "name": "cerere",
      "byteLength": 650560,
      "uri": "data:application/octet-stream;base64,"
    }
  ],
  "bufferViews": [
    {
      "name": "bufferView_0",
      "buffer": 0,
      "byteLength": 86736,
      "byteOffset": 0,
      "byteStride": 12,
      "target": 34962
    },
    {
      "name": "bufferView_1",
      "buffer": 0,
      "byteLength": 28912,
      "byteOffset": 86736,
      "byteStride": 8,
      "target": 34962
    },
    {
      "name": "bufferView_2",
      "buffer": 0,
      "byteLength": 16200,
      "byteOffset": 115648,
      "target": 34963
    },
    {
      "buffer": 0,
      "byteOffset": 131848,
      "byteLength": 484463
    },
    {
      "buffer": 0,
      "byteOffset": 616311,
      "byteLength": 34247
    }
  ],
  "images": [
    {
      "name": "2b14000264805349",
      "mimeType": "image/png",
      "bufferView": 3
    },
    {
      "name": "2b1400039a3fb6fb",
      "mimeType": "image/png",
      "bufferView": 4
    }
  ],
  "materials": [
    {
      "name": "mat_mat_a239ca25_78a5cd76",
      "pbrMetallicRoughness": {
        "baseColorTexture": {
          "index": 0
        },
        "baseColorFactor": [
          1,
          1,
          1,
          1
        ],
        "metallicFactor": 0,
        "roughnessFactor": 0.9372549020000001
      },
      "emissiveFactor": [
        0,
        0,
        0
      ],
      "alphaMode": "OPAQUE",
      "doubleSided": false
    },
    {
      "name": "mat_mat_11385f8c_78a5cd76",
      "pbrMetallicRoughness": {
        "baseColorTexture": {
          "index": 1
        },
        "baseColorFactor": [
          1,
          1,
          1,
          1
        ],
        "metallicFactor": 0,
        "roughnessFactor": 0.9372549020000001
      },
      "emissiveFactor": [
        0,
        0,
        0
      ],
      "alphaMode": "OPAQUE",
      "doubleSided": false
    },
    {
      "name": "mat_mat_mat3_7cf_78a5cd76",
      "pbrMetallicRoughness": {
        "baseColorFactor": [
          1,
          1,
          1,
          1
        ],
        "metallicFactor": 0,
        "roughnessFactor": 0.9372549020000001
      },
      "emissiveFactor": [
        0,
        0,
        0
      ],
      "alphaMode": "OPAQUE",
      "doubleSided": false
    }
  ],
  "meshes": [
    {
      "name": "mesh_2-Mesh",
      "primitives": [
        {
          "attributes": {
            "POSITION": 0,
            "NORMAL": 1,
            "TEXCOORD_0": 2
          },
          "indices": 3,
          "material": 0,
          "mode": 4
        },
        {
          "attributes": {
            "POSITION": 0,
            "NORMAL": 1,
            "TEXCOORD_0": 2
          },
          "indices": 4,
          "material": 1,
          "mode": 4
        },
        {
          "attributes": {
            "POSITION": 0,
            "NORMAL": 1,
            "TEXCOORD_0": 2
          },
          "indices": 5,
          "material": 2,
          "mode": 4
        }
      ]
    }
  ],
  "nodes": [
    {
      "name": "mesh_2",
      "mesh": 0
    }
  ],
  "samplers": [
    {
      "magFilter": 9729,
      "minFilter": 9986,
      "wrapS": 10497,
      "wrapT": 10497
    }
  ],
  "scene": 0,
  "scenes": [
    {
      "nodes": [
        0
      ]
    }
  ],
  "textures": [
    {
      "name": "2b14000264805349",
      "sampler": 0,
      "source": 0
    },
    {
      "name": "2b1400039a3fb6fb",
      "sampler": 0,
      "source": 1
    }
  ]
}
