{
    "accessors" : [
        {
            "bufferView" : 0, 
            "componentType" : 5121, 
            "count" : 30, 
            "max" : [
                19
            ], 
            "min" : [
                0
            ], 
            "type" : "SCALAR"
        }, 
        {
            "bufferView" : 1, 
            "componentType" : 5126, 
            "count" : 20, 
            "max" : [
                0.18698593974113464, 
                0.9545398950576782, 
                0.4962354600429535
            ], 
            "min" : [
                -0.43711405992507935, 
                0.23584601283073425, 
                0.48939505219459534
            ], 
            "type" : "VEC3"
        }, 
        {
            "bufferView" : 2, 
            "componentType" : 5126, 
            "count" : 20, 
            "max" : [
                0.0, 
                0.3420209288597107, 
                0.939664900302887
            ], 
            "min" : [
                0.0, 
                0.3420209288597107, 
                0.939664900302887
            ], 
            "type" : "VEC3"
        }, 
        {
            "bufferView" : 3, 
            "componentType" : 5121, 
            "count" : 420, 
            "max" : [
                167
            ], 
            "min" : [
                0
            ], 
            "type" : "SCALAR"
        }, 
        {
            "bufferView" : 4, 
            "componentType" : 5126, 
            "count" : 168, 
            "max" : [
                0.21492649614810944, 
                1.0190000534057617, 
                0.503000020980835
            ], 
            "min" : [
                -0.46507352590560913, 
                0.0, 
                -1.4495849853801701e-08
            ], 
            "type" : "VEC3"
        }, 
        {
            "bufferView" : 5, 
            "componentType" : 5126, 
            "count" : 168, 
            "max" : [
                1.0, 
                1.0, 
                1.0
            ], 
            "min" : [
                -1.0, 
                -1.0, 
                -1.0
            ], 
            "type" : "VEC3"
        }, 
        {
            "bufferView" : 6, 
            "componentType" : 5123, 
            "count" : 750, 
            "max" : [
                439
            ], 
            "min" : [
                0
            ], 
            "type" : "SCALAR"
        }, 
        {
            "bufferView" : 7, 
            "componentType" : 5126, 
            "count" : 440, 
            "max" : [
                0.18698593974113464, 
                0.9579094648361206, 
                0.4980088770389557
            ], 
            "min" : [
                -0.43711405992507935, 
                0.05795948579907417, 
                0.47200000286102295
            ], 
            "type" : "VEC3"
        }, 
        {
            "bufferView" : 8, 
            "componentType" : 5126, 
            "count" : 440, 
            "max" : [
                1.0, 
                1.0, 
                1.0
            ], 
            "min" : [
                -1.0, 
                -1.0, 
                -1.0
            ], 
            "type" : "VEC3"
        }
    ], 
    "asset" : {
        "generator" : "Khronos Blender glTF 2.0 exporter", 
        "version" : "2.0"
    }, 
    "bufferViews" : [
        {
            "buffer" : 0, 
            "byteLength" : 30, 
            "byteOffset" : 0, 
            "target" : 34963
        }, 
        {
            "buffer" : 0, 
            "byteLength" : 240, 
            "byteOffset" : 32, 
            "target" : 34962
        }, 
        {
            "buffer" : 0, 
            "byteLength" : 240, 
            "byteOffset" : 272, 
            "target" : 34962
        }, 
        {
            "buffer" : 0, 
            "byteLength" : 420, 
            "byteOffset" : 512, 
            "target" : 34963
        }, 
        {
            "buffer" : 0, 
            "byteLength" : 2016, 
            "byteOffset" : 932, 
            "target" : 34962
        }, 
        {
            "buffer" : 0, 
            "byteLength" : 2016, 
            "byteOffset" : 2948, 
            "target" : 34962
        }, 
        {
            "buffer" : 0, 
            "byteLength" : 1500, 
            "byteOffset" : 4964, 
            "target" : 34963
        }, 
        {
            "buffer" : 0, 
            "byteLength" : 5280, 
            "byteOffset" : 6464, 
            "target" : 34962
        }, 
        {
            "buffer" : 0, 
            "byteLength" : 5280, 
            "byteOffset" : 11744, 
            "target" : 34962
        }
    ], 
    "buffers" : [
        {
            "byteLength" : 17024, 
            "uri" : "untitled.bin"
        }
    ], 
    "materials" : [
        {
            "name" : "mat_SKP_RAL5012Lichtblau_a68a7cc6", 
            "pbrMetallicRoughness" : {
                "baseColorFactor" : [
                    0.16078431904315948, 
                    0.45098039507865906, 
                    0.7215686440467834, 
                    1.0
                ], 
                "metallicFactor" : 0.0
            }
        }, 
        {
            "name" : "mat_SKP_RAL7035Lichtgrau_a68a7cc6", 
            "pbrMetallicRoughness" : {
                "baseColorFactor" : [
                    0.8313725590705872, 
                    0.8509804010391235, 
                    0.8588235378265381, 
                    1.0
                ], 
                "metallicFactor" : 0.0
            }
        }, 
        {
            "name" : "mat_SKP_RAL9003Signalwei_a68a7cc6", 
            "pbrMetallicRoughness" : {
                "metallicFactor" : 0.0
            }
        }
    ], 
    "meshes" : [
        {
            "name" : "mesh_2", 
            "primitives" : [
                {
                    "attributes" : {
                        "NORMAL" : 2, 
                        "POSITION" : 1
                    }, 
                    "indices" : 0, 
                    "material" : 2
                }, 
                {
                    "attributes" : {
                        "NORMAL" : 5, 
                        "POSITION" : 4
                    }, 
                    "indices" : 3, 
                    "material" : 1
                }, 
                {
                    "attributes" : {
                        "NORMAL" : 8, 
                        "POSITION" : 7
                    }, 
                    "indices" : 6, 
                    "material" : 0
                }
            ]
        }
    ], 
    "nodes" : [
        {
            "mesh" : 0, 
            "name" : "mesh_2", 
            "rotation" : [
                8.742278367890322e-08, 
                0.0, 
                -0.0, 
                1.0
            ]
        }
    ], 
    "scene" : 0, 
    "scenes" : [
        {
            "name" : "Scene", 
            "nodes" : [
                0
            ]
        }
    ]
}
