{
  "accessors": [
    {
      "name": "mesh_16-Mesh_positions",
      "componentType": 5126,
      "count": 6430,
      "min": [
        -4.272764205932617,
        -3.4437389373779297,
        -13.457457542419434
      ],
      "max": [
        215.72723388671875,
        70.55628204345703,
        92.04257202148438
      ],
      "type": "VEC3",
      "bufferView": 0,
      "byteOffset": 0
    },
    {
      "name": "mesh_16-Mesh_normals",
      "componentType": 5126,
      "count": 6430,
      "min": [
        -1,
        -1,
        -1
      ],
      "max": [
        1,
        1,
        1
      ],
      "type": "VEC3",
      "bufferView": 0,
      "byteOffset": 77160
    },
    {
      "name": "mesh_16-Mesh_texcoords",
      "componentType": 5126,
      "count": 6430,
      "min": [
        -5,
        -3.9995999336242676
      ],
      "max": [
        5,
        5.9980998039245605
      ],
      "type": "VEC2",
      "bufferView": 1,
      "byteOffset": 0
    },
    {
      "name": "mesh_16-Mesh_0_indices",
      "componentType": 5123,
      "count": 12117,
      "min": [
        0
      ],
      "max": [
        3956
      ],
      "type": "SCALAR",
      "bufferView": 2,
      "byteOffset": 0
    },
    {
      "name": "mesh_16-Mesh_1_indices",
      "componentType": 5123,
      "count": 7257,
      "min": [
        3957
      ],
      "max": [
        6221
      ],
      "type": "SCALAR",
      "bufferView": 2,
      "byteOffset": 24236
    },
    {
      "name": "mesh_16-Mesh_2_indices",
      "componentType": 5123,
      "count": 540,
      "min": [
        6222
      ],
      "max": [
        6429
      ],
      "type": "SCALAR",
      "bufferView": 2,
      "byteOffset": 38752
    }
  ],
  "asset": {
    "generator": "obj2gltf",
    "version": "2.0"
  },
  "buffers": [
    {
      "name": "apis",
      "byteLength": 1664472,
      "uri": "data:application/octet-stream;base64,"
    }
  ],
  "bufferViews": [
    {
      "name": "bufferView_0",
      "buffer": 0,
      "byteLength": 154320,
      "byteOffset": 0,
      "byteStride": 12,
      "target": 34962
    },
    {
      "name": "bufferView_1",
      "buffer": 0,
      "byteLength": 51440,
      "byteOffset": 154320,
      "byteStride": 8,
      "target": 34962
    },
    {
      "name": "bufferView_2",
      "buffer": 0,
      "byteLength": 39832,
      "byteOffset": 205760,
      "target": 34963
    },
    {
      "buffer": 0,
      "byteOffset": 245592,
      "byteLength": 484463
    },
    {
      "buffer": 0,
      "byteOffset": 730055,
      "byteLength": 1184
    },
    {
      "buffer": 0,
      "byteOffset": 731239,
      "byteLength": 356641
    },
    {
      "buffer": 0,
      "byteOffset": 1087880,
      "byteLength": 576592
    }
  ],
  "images": [
    {
      "name": "2b200002",
      "mimeType": "image/png",
      "bufferView": 3
    },
    {
      "name": "2b200005",
      "mimeType": "image/png",
      "bufferView": 4
    },
    {
      "name": "acad631f407c_leather_grey",
      "mimeType": "image/png",
      "bufferView": 5
    },
    {
      "name": "acad631f407c_leather_grey_normal",
      "mimeType": "image/png",
      "bufferView": 6
    }
  ],
  "materials": [
    {
      "name": "mat_dc58e2c6ea9e4a9391661c73aabec218",
      "pbrMetallicRoughness": {
        "baseColorTexture": {
          "index": 0
        },
        "baseColorFactor": [
          1,
          1,
          1,
          1
        ],
        "metallicFactor": 0,
        "roughnessFactor": 0.896078431
      },
      "emissiveFactor": [
        0,
        0,
        0
      ],
      "alphaMode": "OPAQUE",
      "doubleSided": false
    },
    {
      "name": "mat_ed5aacc05de94c599df9b17660a65123",
      "pbrMetallicRoughness": {
        "baseColorTexture": {
          "index": 1
        },
        "baseColorFactor": [
          1,
          1,
          1,
          1
        ],
        "metallicFactor": 0,
        "roughnessFactor": 0.9235294119999999
      },
      "emissiveFactor": [
        0,
        0,
        0
      ],
      "alphaMode": "OPAQUE",
      "doubleSided": false
    },
    {
      "name": "mat_acad631f407c",
      "pbrMetallicRoughness": {
        "baseColorTexture": {
          "index": 2
        },
        "baseColorFactor": [
          1,
          1,
          1,
          1
        ],
        "metallicFactor": 0,
        "roughnessFactor": 0.976470588
      },
      "normalTexture": {
        "index": 3
      },
      "emissiveFactor": [
        0,
        0,
        0
      ],
      "alphaMode": "OPAQUE",
      "doubleSided": false
    }
  ],
  "meshes": [
    {
      "name": "mesh_16-Mesh",
      "primitives": [
        {
          "attributes": {
            "POSITION": 0,
            "NORMAL": 1,
            "TEXCOORD_0": 2
          },
          "indices": 3,
          "material": 0,
          "mode": 4
        },
        {
          "attributes": {
            "POSITION": 0,
            "NORMAL": 1,
            "TEXCOORD_0": 2
          },
          "indices": 4,
          "material": 1,
          "mode": 4
        },
        {
          "attributes": {
            "POSITION": 0,
            "NORMAL": 1,
            "TEXCOORD_0": 2
          },
          "indices": 5,
          "material": 2,
          "mode": 4
        }
      ]
    }
  ],
  "nodes": [
    {
      "name": "mesh_16",
      "mesh": 0
    }
  ],
  "samplers": [
    {
      "magFilter": 9729,
      "minFilter": 9986,
      "wrapS": 10497,
      "wrapT": 10497
    }
  ],
  "scene": 0,
  "scenes": [
    {
      "nodes": [
        0
      ]
    }
  ],
  "textures": [
    {
      "name": "2b200002",
      "sampler": 0,
      "source": 0
    },
    {
      "name": "2b200005",
      "sampler": 0,
      "source": 1
    },
    {
      "name": "acad631f407c_leather_grey",
      "sampler": 0,
      "source": 2
    },
    {
      "name": "acad631f407c_leather_grey_normal",
      "sampler": 0,
      "source": 3
    }
  ]
}
