{
  "accessors": [
    {
      "name": "mesh_2-Mesh_positions",
      "componentType": 5126,
      "count": 4240,
      "min": [
        0.00001700000029813964,
        -0.000009999999747378752,
        -23.167604446411133
      ],
      "max": [
        195.00001525878906,
        82.00000762939453,
        68.72239685058594
      ],
      "type": "VEC3",
      "bufferView": 0,
      "byteOffset": 0
    },
    {
      "name": "mesh_2-Mesh_normals",
      "componentType": 5126,
      "count": 4240,
      "min": [
        -1,
        -1,
        -1
      ],
      "max": [
        1,
        1,
        1
      ],
      "type": "VEC3",
      "bufferView": 0,
      "byteOffset": 50880
    },
    {
      "name": "mesh_2-Mesh_texcoords",
      "componentType": 5126,
      "count": 4240,
      "min": [
        -1,
        0
      ],
      "max": [
        1,
        2
      ],
      "type": "VEC2",
      "bufferView": 1,
      "byteOffset": 0
    },
    {
      "name": "mesh_2-Mesh_0_indices",
      "componentType": 5123,
      "count": 2382,
      "min": [
        0
      ],
      "max": [
        1367
      ],
      "type": "SCALAR",
      "bufferView": 2,
      "byteOffset": 0
    },
    {
      "name": "mesh_2-Mesh_1_indices",
      "componentType": 5123,
      "count": 1668,
      "min": [
        1368
      ],
      "max": [
        2622
      ],
      "type": "SCALAR",
      "bufferView": 2,
      "byteOffset": 4764
    },
    {
      "name": "mesh_2-Mesh_2_indices",
      "componentType": 5123,
      "count": 2382,
      "min": [
        2623
      ],
      "max": [
        3419
      ],
      "type": "SCALAR",
      "bufferView": 2,
      "byteOffset": 8100
    },
    {
      "name": "mesh_2-Mesh_3_indices",
      "componentType": 5123,
      "count": 1668,
      "min": [
        3420
      ],
      "max": [
        4239
      ],
      "type": "SCALAR",
      "bufferView": 2,
      "byteOffset": 12864
    }
  ],
  "asset": {
    "generator": "obj2gltf",
    "version": "2.0"
  },
  "buffers": [
    {
      "name": "johannes_1",
      "byteLength": 674620,
      "uri": "data:application/octet-stream;base64,"
    }
  ],
  "bufferViews": [
    {
      "name": "bufferView_0",
      "buffer": 0,
      "byteLength": 101760,
      "byteOffset": 0,
      "byteStride": 12,
      "target": 34962
    },
    {
      "name": "bufferView_1",
      "buffer": 0,
      "byteLength": 33920,
      "byteOffset": 101760,
      "byteStride": 8,
      "target": 34962
    },
    {
      "name": "bufferView_2",
      "buffer": 0,
      "byteLength": 16200,
      "byteOffset": 135680,
      "target": 34963
    },
    {
      "buffer": 0,
      "byteOffset": 151880,
      "byteLength": 484463
    },
    {
      "buffer": 0,
      "byteOffset": 636343,
      "byteLength": 38276
    }
  ],
  "images": [
    {
      "name": "1ae40002",
      "mimeType": "image/png",
      "bufferView": 3
    },
    {
      "name": "1ae40003",
      "mimeType": "image/png",
      "bufferView": 4
    }
  ],
  "materials": [
    {
      "name": "mat_mat2_7cfd49f3",
      "pbrMetallicRoughness": {
        "baseColorFactor": [
          1,
          1,
          1,
          1
        ],
        "metallicFactor": 0,
        "roughnessFactor": 0.9372549020000001
      },
      "emissiveFactor": [
        0,
        0,
        0
      ],
      "alphaMode": "OPAQUE",
      "doubleSided": false
    },
    {
      "name": "mat_mat3_7cfd49f3",
      "pbrMetallicRoughness": {
        "baseColorFactor": [
          1,
          1,
          1,
          1
        ],
        "metallicFactor": 0,
        "roughnessFactor": 0.9372549020000001
      },
      "emissiveFactor": [
        0,
        0,
        0
      ],
      "alphaMode": "OPAQUE",
      "doubleSided": false
    },
    {
      "name": "mat_41dfa66ceffc475989983f7f1c29ee35",
      "pbrMetallicRoughness": {
        "baseColorTexture": {
          "index": 0
        },
        "baseColorFactor": [
          1,
          1,
          1,
          1
        ],
        "metallicFactor": 0,
        "roughnessFactor": 0.907843137
      },
      "emissiveFactor": [
        0,
        0,
        0
      ],
      "alphaMode": "OPAQUE",
      "doubleSided": false
    },
    {
      "name": "mat_5b701ae8bf8440c99887ffce6c61c4b7",
      "pbrMetallicRoughness": {
        "baseColorFactor": [
          0.752941,
          0.752941,
          0.752941,
          1
        ],
        "metallicFactor": 0,
        "roughnessFactor": 0.935294118
      },
      "normalTexture": {
        "index": 1
      },
      "emissiveFactor": [
        0,
        0,
        0
      ],
      "alphaMode": "OPAQUE",
      "doubleSided": false
    }
  ],
  "meshes": [
    {
      "name": "mesh_2-Mesh",
      "primitives": [
        {
          "attributes": {
            "POSITION": 0,
            "NORMAL": 1,
            "TEXCOORD_0": 2
          },
          "indices": 3,
          "material": 0,
          "mode": 4
        },
        {
          "attributes": {
            "POSITION": 0,
            "NORMAL": 1,
            "TEXCOORD_0": 2
          },
          "indices": 4,
          "material": 1,
          "mode": 4
        },
        {
          "attributes": {
            "POSITION": 0,
            "NORMAL": 1,
            "TEXCOORD_0": 2
          },
          "indices": 5,
          "material": 2,
          "mode": 4
        },
        {
          "attributes": {
            "POSITION": 0,
            "NORMAL": 1,
            "TEXCOORD_0": 2
          },
          "indices": 6,
          "material": 3,
          "mode": 4
        }
      ]
    }
  ],
  "nodes": [
    {
      "name": "mesh_2",
      "mesh": 0
    }
  ],
  "samplers": [
    {
      "magFilter": 9729,
      "minFilter": 9986,
      "wrapS": 10497,
      "wrapT": 10497
    }
  ],
  "scene": 0,
  "scenes": [
    {
      "nodes": [
        0
      ]
    }
  ],
  "textures": [
    {
      "name": "1ae40002",
      "sampler": 0,
      "source": 0
    },
    {
      "name": "1ae40003",
      "sampler": 0,
      "source": 1
    }
  ]
}
