{
  "accessors": [
    {
      "name": "mesh_4-Mesh_positions",
      "componentType": 5126,
      "count": 10704,
      "min": [
        33.54481506347656,
        -0.000007000000096013537,
        0.000007999999979801942
      ],
      "max": [
        132.54481506347656,
        45.20000076293945,
        53.360008239746094
      ],
      "type": "VEC3",
      "bufferView": 0,
      "byteOffset": 0
    },
    {
      "name": "mesh_4-Mesh_normals",
      "componentType": 5126,
      "count": 10704,
      "min": [
        -1,
        -1,
        -1
      ],
      "max": [
        1,
        1,
        0.9994999766349792
      ],
      "type": "VEC3",
      "bufferView": 0,
      "byteOffset": 128448
    },
    {
      "name": "mesh_4-Mesh_texcoords",
      "componentType": 5126,
      "count": 10704,
      "min": [
        -1,
        0
      ],
      "max": [
        1,
        2
      ],
      "type": "VEC2",
      "bufferView": 1,
      "byteOffset": 0
    },
    {
      "name": "mesh_4-Mesh_0_indices",
      "componentType": 5123,
      "count": 1743,
      "min": [
        0
      ],
      "max": [
        428
      ],
      "type": "SCALAR",
      "bufferView": 2,
      "byteOffset": 0
    },
    {
      "name": "mesh_4-Mesh_1_indices",
      "componentType": 5123,
      "count": 31200,
      "min": [
        429
      ],
      "max": [
        10703
      ],
      "type": "SCALAR",
      "bufferView": 2,
      "byteOffset": 3488
    }
  ],
  "asset": {
    "generator": "obj2gltf",
    "version": "2.0"
  },
  "buffers": [
    {
      "name": "avrevsdoricvs",
      "byteLength": 902716,
      "uri": "data:application/octet-stream;base64,"
    }
  ],
  "bufferViews": [
    {
      "name": "bufferView_0",
      "buffer": 0,
      "byteLength": 256896,
      "byteOffset": 0,
      "byteStride": 12,
      "target": 34962
    },
    {
      "name": "bufferView_1",
      "buffer": 0,
      "byteLength": 85632,
      "byteOffset": 256896,
      "byteStride": 8,
      "target": 34962
    },
    {
      "name": "bufferView_2",
      "buffer": 0,
      "byteLength": 65888,
      "byteOffset": 342528,
      "target": 34963
    },
    {
      "buffer": 0,
      "byteOffset": 408416,
      "byteLength": 484463
    },
    {
      "buffer": 0,
      "byteOffset": 892879,
      "byteLength": 9835
    }
  ],
  "images": [
    {
      "name": "2e0c0005",
      "mimeType": "image/png",
      "bufferView": 3
    },
    {
      "name": "2e0c0002",
      "mimeType": "image/png",
      "bufferView": 4
    }
  ],
  "materials": [
    {
      "name": "mat_aadc80dcc741480a91e3b132a5d3bc7d",
      "pbrMetallicRoughness": {
        "baseColorTexture": {
          "index": 0
        },
        "baseColorFactor": [
          1,
          1,
          1,
          1
        ],
        "metallicFactor": 0,
        "roughnessFactor": 0.901960784
      },
      "emissiveFactor": [
        0,
        0,
        0
      ],
      "alphaMode": "OPAQUE",
      "doubleSided": false
    },
    {
      "name": "mat_1c01c7630ef4422b8200c2fa6a28da02",
      "pbrMetallicRoughness": {
        "baseColorTexture": {
          "index": 1
        },
        "baseColorFactor": [
          1,
          1,
          1,
          1
        ],
        "metallicFactor": 0,
        "roughnessFactor": 0.907843137
      },
      "emissiveFactor": [
        0,
        0,
        0
      ],
      "alphaMode": "OPAQUE",
      "doubleSided": false
    }
  ],
  "meshes": [
    {
      "name": "mesh_4-Mesh",
      "primitives": [
        {
          "attributes": {
            "POSITION": 0,
            "NORMAL": 1,
            "TEXCOORD_0": 2
          },
          "indices": 3,
          "material": 0,
          "mode": 4
        },
        {
          "attributes": {
            "POSITION": 0,
            "NORMAL": 1,
            "TEXCOORD_0": 2
          },
          "indices": 4,
          "material": 1,
          "mode": 4
        }
      ]
    }
  ],
  "nodes": [
    {
      "name": "mesh_4",
      "mesh": 0
    }
  ],
  "samplers": [
    {
      "magFilter": 9729,
      "minFilter": 9986,
      "wrapS": 10497,
      "wrapT": 10497
    }
  ],
  "scene": 0,
  "scenes": [
    {
      "nodes": [
        0
      ]
    }
  ],
  "textures": [
    {
      "name": "2e0c0005",
      "sampler": 0,
      "source": 0
    },
    {
      "name": "2e0c0002",
      "sampler": 0,
      "source": 1
    }
  ]
}
